<svg xmlns="http://www.w3.org/2000/svg" viewBox="0 0 349.74102 296.6237" height="395.49826" width="466.32135" version="1.0"><g style="mix-blend-mode:normal"><path d="M82.689166 11.908697c-12.3975 4.83-25.71 9.75-33.75 22.5-4.7325 7.455-5.415 16.26749-9.1125 23.95499 6.8625-6.44999 14.85-11.25 20.67-18.91499 6.9975-9.2475 13.08-19.5375 22.185-27.525zm184.305007 0c9.1125 7.9875 15.195 18.2775 22.1925 27.525 5.805 7.71 13.7925 12.48 20.64 18.92999-3.705-7.6875-4.3875-16.49999-9.0975-23.94749-8.055-12.75-21.36-17.6625-33.75-22.5zm-217.755007 16.8525c-6.3375 1.65-11.6625 5.745-16.38001 10.995-9.915 11.03249-9.06 27.21-7.7325 41.670006.35339 4.2861.25283 8.59754-.3 12.8625 3.24601-6.4396 7.93225-12.0446 13.69501-16.38001 12.885-9.750006 27-22.320006 27.195-38.879996-4.29 11.90249-17.2725 16.82999-25.89 24.97499-4.45049 4.13596-7.91129 9.22205-10.12501 14.880016l-.315-.255c1.08-4.762516 3.0975-9.082516 4.5-13.695006 3.75001-12.615 3.09-27.6975 15.36751-36.135zm251.250007 0c12.225 8.475 11.5875 23.5275 15.3375 36.1725 1.3725 4.6125 3.39 8.93249 4.4625 13.695006l-.3075.255c-2.227-5.658416-5.69756-10.743796-10.155-14.880006-8.6325-8.14501-21.615-13.07251-25.89-24.99.195 16.55999 14.31 29.145 27.2025 38.880006 5.76013 4.34228 10.44352 9.95209 13.6875 16.395-.55937-4.25921-.66748-8.56559-.3225-12.8475 1.3275-14.460006 2.1825-30.675016-7.7325-41.670006-4.7325-5.25-10.0425-9.3375-16.365-10.9575zM23.034156 51.388687c-.3225-.06-.5025.19501-.75.31501-8.5575 10.91249-14.25 22.86749-14.25 37.500006 0 18.10499 10.41 30.75 11.7075 47.7375 2.685-17.7375 17.5725-30.33751 25.28251-45.945 2.97336-6.19034 4.90191-12.83002 5.7075-19.650006-1.15746 2.94013-2.95018 5.58824-5.25 7.755006-10.01251 9.495-21.82501 18.855-24.09751 32.30249-.22822 1.94022-.57892 3.86406-1.05 5.76001-.435.1875-.435-.3075-.6225-.4275l1.245-16.68751c1.23-16.25999-7.38-34.364996 2.07-48.697496zm303.592517 0c9.42 14.3325.84 32.422516 2.055 48.675006l1.245 16.68751c-.1875.12-.1875.6225-.6225.4275-.47107-1.89595-.82177-3.81979-1.05-5.76001-2.25-13.44749-14.085-22.80749-24.0975-32.30249-2.29983-2.166766-4.09255-4.814886-5.25-7.755016.80423 6.820266 2.73284 13.460176 5.7075 19.650016 7.71 15.60749 22.5975 28.2075 25.2825 45.945 1.2975-16.995 11.7075-29.63251 11.7075-47.73 0-14.655016-5.7075-26.610016-14.25-37.500016-.2475-.12-.4275-.375-.75-.315zM4.764156 96.426203c-1.9950003 4.19999-2.7975003 8.94749-3.8550003 13.49999-2.25 11.84251 0 24.41251 3.2175003 35.29501 4.0275 13.6125 17.355 23.355 24.1125 35.8275l.93.75c-.99-6.75-1.5-14.0625.4275-20.5275 2.91-10.3425 6.5775-20.3925 8.49751-31.1175 1.5-8.325 3.21-17.67001 2.25-25.74001-1.11 4.35-2.25 8.6475-4.65001 12.34501-9.075 14.0475-18.39 30.525-12 48.3525-.15.195-.36.4425-.5925.315-2.5575-5.895-3.12-12.6-4.7775-18.915-4.4025-16.7475-17.2500003-30.75-13.5-50.1zm340.162517 0c3.75 19.365-9.105 33.3525-13.5 50.1-1.6575 6.315-2.25 13.02-4.7775 18.915-.2325.1275-.4425-.12-.5925-.315 6.36-17.8275-2.955-34.305-12-48.3525-2.3925-3.69751-3.54-7.99501-4.65-12.34501-.9825 8.07.75 17.41501 2.25 25.74001 1.92 10.725 5.5875 20.775 8.4975 31.1175 1.92 6.465 1.4175 13.755.4275 20.5275l.93-.75c6.75-12.4725 20.085-22.215 24.1125-35.8275 3.2175-10.8825 5.445-23.4525 3.2175-35.29501-1.0575-4.5825-1.86-9.3225-3.855-13.49999zm-306.727507 48.255c1.6725 11.025-2.69251 20.76-3.70501 31.245-.8313 8.29102.55606 16.65402 4.02001 24.2325.99 2.1375 2.7825 4.08 3.2925 6.2625-3.2325-2.91-5.52751-6.63-7.74751-10.2375-10.425-16.8675-32.2500003-27.8325-33.7500003-48.36-.75 9.1275.045 18.81 3.09 26.925 4.2300003 11.25 12.3600003 19.9125 21.7500003 27.2925 9.6825 7.635 21.24751 13.5975 30.07501 20.31-1.74-4.395-4.5675-8.4525-5.715-13.0875-5.19-21-2.295-45.195-11.25-64.5825zm273.285007 0c-9 19.3875-6.0825 43.62-11.25 64.5825-1.155 4.635-3.975 8.6925-5.715 13.0875 8.82-6.7125 20.385-12.675 30.075-20.31 9.3675-7.38 17.4975-16.035 21.75-27.2925 3.045-8.115 3.8325-17.7975 3.09-26.925-1.5 20.5275-23.34 31.5-33.75 48.36-2.25 3.6075-4.5 7.3275-7.7475 10.2375.5025-2.1825 2.3025-4.125 3.2925-6.2625 3.46457-7.58094 4.85193-15.94653 4.02-24.24-1.0125-10.5-5.385-20.25-3.705-31.2375zm-261.990007 35.145c7.575 15.135 4.305 34.6425 14.13 48.9225 3.075 4.5 7.365 8.7375 11.3325 12.33l-.1875.1875c-3.5925-1.6725-6.825-4.1775-10.095-6.8925-17.19-14.295-43.04251-16.1175-53.34751-39.4125 2.79 17.1 16.365 32.25 31.02001 41.85 13.9425 9.1275 31.8 8.115 47.25 13.2225-14.2575-11.5275-16.425-28.845-22.77-43.995-3.96-9.435-10.4175-17.9175-17.295-26.16zm250.732507 0c-6.885 8.25-13.3425 16.725-17.3025 26.16-6.375 15.1875-8.5425 32.505-22.845 44.0475 15.48-5.1075 33.3375-4.095 47.25-13.2225 14.6475-9.6 28.23-24.75 31.02-41.85-10.29 23.295-36.1425 25.1175-53.3325 39.4125-3.27 2.715-6.51 5.25-10.095 6.8925l-.1875-.1875c3.9675-3.585 8.25-7.8675 11.3325-12.33 9.825-14.25 6.555-33.75 14.13-48.9225zm-226.012507 36.9225c9.345 12.585 12 30.87 29.100007 37.3125 3 1.1325 6.495 1.32 9.1125 3-3.2925.5025-6.1725-.51-9.24-1.1625-22.020007-4.695-48.922507 1.35-65.422507-17.43 6.2625 12.27 19.155 21.9525 31.545 26.04 19.2 6.3375 39.202507-.75 57.240007-5.205 2.6025-.645 5.76-.435 8.175-1.32-10.0425-2.0475-19.725-5.0925-27.5025-12.2025-11.16751-10.215-21.060007-21.0825-33.000007-29.025zm201.262507 0c-11.9475 7.9425-21.84 18.81-33 29.025-7.7775 7.11-17.46 10.155-27.5025 12.195 2.4075.885 5.565.675 8.1675 1.32 18 4.5 38.0475 11.5425 57.24 5.205 12.39-4.0875 25.2825-13.77 31.545-26.04-16.5 18.75-43.4025 12.75-65.4225 17.4225-3.0675.66-5.9475 1.6725-9.24 1.17 2.6175-1.665 6.09-1.8525 9.1125-3 17.0925-6.435 19.755-24.75 29.1075-37.305zm-118.7625 40.7175c-16.905 0-32.0025 8.1675-46.8375 14.325-13.41751 5.565-31.215007 4.4625-43.102507-3.75 5.88 7.38 13.755 11.925 21.8775 15 15.097507 6 32.722507 1.4025 45.570007-6.81 9.255-5.9175 17.19-14.3025 28.2075-14.3025 1.96684.009 3.92741.22254 5.85.6375-15.4725 6.195-29.535 17.115-40.5 27.6 2.18116 2.34894 4.55713 4.50914 7.1025 6.4575 12.2475-12.66 26.13-26.3625 39.975-32.0175 13.845 5.655 27.75 19.3575 39.9825 32.0175 2.54135-1.95038 4.91467-4.11045 7.095-6.4575-10.98-10.5-25.0425-21.405-40.5-27.6 1.92259-.41496 3.88316-.62861 5.85-.6375 11.0175 0 18.9525 8.385 28.2075 14.3025 12.8475 8.2125 30.4725 12.8325 45.57 6.81 8.1225-3.0825 15.9975-7.6275 21.8775-15-11.8875 8.1975-29.685 9.3-43.1025 3.75-14.835-6.1575-29.9325-14.325-46.83-14.325-6.16534.0383-12.29129.98605-18.18 2.8125-5.87171-1.82211-11.97971-2.76977-18.1275-2.8125z"/><path style="line-height:normal;font-variant-ligatures:normal;font-variant-position:normal;font-variant-caps:normal;font-variant-numeric:normal;font-variant-alternates:normal;font-variant-east-asian:normal;font-feature-settings:normal;font-variation-settings:normal;text-indent:0;text-align:start;text-decoration-line:none;text-decoration-style:solid;text-decoration-color:#000;text-transform:none;text-orientation:mixed;white-space:normal;shape-padding:0;shape-margin:0;inline-size:0;isolation:auto;mix-blend-mode:normal;solid-color:#000;solid-opacity:1" d="M174.83496223 0c-68.2543584-.000002-123.6181629 55.36379999-123.61816515 123.61816665 0 19.12763275 4.35014781 37.241528 12.11132866 53.40966821.001125-.014175.006975-.026475.00735-.041025.0165-.71248501.0764685-1.26852752.150879-1.86621003.1397505-1.12255501.35187976-2.33796753.61083976-3.64160254-6.16009508-14.2401452-9.66061662-29.9004004-9.86135413-46.36083062h21.42334304c.102555 6.90155259.91687501 13.62939018 2.36132253 20.12109027.83730001-.78368251 1.70054252-1.52390252 2.58691503-2.22802503-1.18480501-5.79214508-1.85467502-11.77160266-1.94823752-17.89306524h21.42333778c.061875 3.13796254.3198 6.22728758.75732001 9.25927512.97934252-.1454025 1.97381253-.2570625 2.97949504-.344235-.4237875-2.91866254-.6749025-5.89322258-.736815-8.91504012h20.86669527c-.18645-.99243001-.361335-1.99220253-.5244075-3.00000004h-20.34228778c.3693375-18.02697024 7.3886701-34.40193046 18.68994025-46.80908313.65545501-2.07190652 1.51615502-4.06096955 2.51660254-5.99853608-.2317425-.0439575-.4455675-.0759255-.68701501-.12744075-.1856325.1747905-.3742575.3462885-.558105.52294876-5.13146258-4.95735532-10.00986764-10.00987213-15.16259271-15.16259795 3.79113005-3.6753728 7.8863101-7.03781935 12.24023266-10.05322289.48021-1.73271227 1.10874752-3.34404454 2.47119003-5.18847607-6.07389008 3.77238455-11.71330515 8.17885736-16.81933522 13.13378868l-15.1611302-15.16113245c21.40366528-20.88076903 50.54072317-33.8629101 82.7226536-34.25537176V19.120606c1.02768751.30292126 2.03139003.68694076 3.00000004 1.14990227V3.01904299c32.18155543.39245806 61.31952832 13.37355648 82.7226611 34.253907l-15.1626002 15.1625972c-16.18014771-15.7014377-37.691453-25.92834334-61.55127082-27.71630886.0864375.09516.1776375.185631.2622075.2827155.87314252.97651802 1.59494253 1.95755328 2.23388253 2.94873004 22.0477053 2.27664828 41.88079556 11.98626091 56.94726826 26.5927736L229.15869296 67.1718759c.87708.529932 1.75007252 1.06994026 2.61768003 1.62451202l12.13183516-12.13183666c12.53912267 12.93415742 21.46811279 29.38133739 25.18652284 47.72607513 1.35996752 1.95459003 2.73453753 4.04110506 4.06494005 6.14208758-2.85306754-21.62952028-12.67510517-41.06611854-27.14355786-55.97607224l15.1626002-15.16259795c20.88072778 21.40374103 33.86292045 50.54180992 34.25537296 82.72412285h-15.5390627c.3901425.7715775.7015275 1.47597002 1.0166025 2.18994003.55801501.182055 1.11318752.4677825 1.64355003.81006h12.87891017c-.392445 32.18193044-13.37507268 61.31945333-34.25537296 82.72265361l-9.29150262-9.29150262c-.61937251.8070975-1.24644752 1.63332002-1.84863003 2.39355753l9.01904262 9.01904262c-21.40320028 20.88029278-50.54073067 33.86292795-82.7226611 34.25537296v-20.02587777c-1.01271001-.394215-2.01709503-.80161501-3.00000004-1.23780002v21.26367779c-32.18231293-.3924525-61.32037582-13.37464518-82.7241236-34.25537296l15.1626002-15.1626002c17.44711523 16.93048522 41.09187805 27.50038536 67.1967759 27.98291287-2.23031253-1.00555501-4.38515256-2.11451253-6.45117009-3.33545254-22.7243703-1.94413503-43.18675558-11.77632766-58.63769328-26.75536536l11.63818515-11.63818516c-1.52811752.125055-3.09428254.2780775-4.70655006.46435501l-9.05273262 9.05273262c-2.08416753-2.14980003-4.06818755-4.39747506-5.94579758-6.73389009-1.12100251.1648425-2.26854003.3194475-3.42774004.465825 2.26705503 2.92585505 4.69160256 5.72347508 7.2656251 8.37597762l-15.16259271 15.1625927c-6.53998509-6.70371759-12.30436516-14.16646519-17.15039198-22.2436503-.11692275-.014775-.2314635-.02535-.35009775-.04245-.59873251-.0863775-1.20863927-.180555-2.11669953-.4877925-.419469-.1419225-.99086176-.25671-1.65966752-.61523251 21.23772928 37.479968 61.48155232 62.78466834 107.62207043 62.78466834 68.25437341 0 123.61816665-55.36380074 123.61816665-123.61816665C298.45312888 55.36380149 243.08933564 0 174.83496223 0zM88.49121108 39.39550853l15.1611302 15.1611332c-17.00981272 17.52848498-27.60309037 41.31192205-27.99315787 67.5615249H54.23584037c.392463-32.18193793 13.37460393-61.31898682 34.25537071-82.7226581zm17.26904273 17.26904273l15.1626002 15.16259795c-12.59278517 13.10478692-20.45573277 30.78481466-20.84033278 50.29101742H78.65918345c.38904-25.43787034 10.63828514-48.47230715 27.10107036-65.45361537zm115.71826654 58.85595528c.3702525 2.15286003.59521501 4.35514506.66504001 6.59766009h-15.1523477c-.4360575 1.02915751-.88646251 2.02482753-1.34912252 3.00000004h16.50147022c-.28962 9.30713262-3.26478004 17.92422024-8.1679726 25.12353783.5093475-.069525 1.01574-.1410225 1.51611751-.2197275.0195-.00375.039075-.00675.058575-.010275.76852501-.1146975 1.56339002-.2414025 2.35986754-.370605 4.35834005-7.1957851 6.97010259-15.56377521 7.2333976-24.52294533h9.00000011c-1.19672251-.96078001-2.33006253-1.95257253-3.36035254-3.00000004h-5.63964758c-.063375-2.15453253-.2730525-4.27164756-.5991225-6.35010009-.1294425-.0015-.00075-.00075-.1640625-.003h.08496c-1.25607752 0-2.11498504-.10674-2.98681505-.244635zm24.46581783 17.82715524c-.4141575 3.05979754-1.01943751 6.05805758-1.80615002 8.98242012 1.0397925-.4185375 1.95949502-.80772001 2.62500003-1.09131002.179505-1.99788752.663285-3.97125005 1.45605002-5.87548508-.4356-.44193-.75136501-.826455-1.27002002-1.24072501-.31149-.2488125-.66483-.51435-1.00488001-.77490001zm-50.94726818 8.3115226c-.26964.31074751-.5393775.61113002-.81152251.90234002-.3935925.4211925-.82556251.83993251-1.27881002 1.24951502l7.2670951 7.2670876c1.44960752-.006 2.85309754-.022875 4.17627005-.065925zm-65.64990088 38.98827803c-.885-.010425-1.84392002.0045-2.81543253.0249 4.25912255 3.60990005 8.92736262 6.75017259 13.92480768 9.34424262-.1569525-.27195-.2900925-.4962-.45117-.77637-1.05578252-1.82361753-1.87856253-3.19843505-2.59863754-4.38281257-2.09352753-1.28154751-4.11258005-2.66981253-6.05712758-4.15283255-.6403425-.02745-1.30091252-.048825-2.00244003-.05715z" color="#000" font-weight="400" font-family="sans-serif" overflow="visible"/></g><path d="M164.36872737 26.30422851c-1.27250794.40488889-2.60285715 1.56171429-3.93320636 3.35479366l-1.96660318 2.77638096-1.96660318-.86761905c-2.60285715-1.09898413-8.0977778-1.04114286-11.45257146.11568254-3.58615874 1.21466667-7.57720637 4.80082541-8.84971431 8.0977778l-1.09898413 2.60285715-2.37149207-.34704762c-2.14012699-.28920635-2.54501588-.17352381-3.81752382 1.33034921-1.50387302 1.85092064-3.00774604 7.75073018-3.70184128 14.69168258-.34704762 3.87536509-.34704762 3.93320636.98330159 3.93320636 1.38819048 0 10.9898413-1.44603175 13.99758734-2.08228572 1.44603175-.34704762 1.04114286.23136508-2.8920635 4.16457144-4.85866668 4.91650795-7.5193651 9.48596828-8.84971431 15.21225401-.69409524 2.94990477-.69409524 3.18126985.52057143 4.0488889 1.27250794.98330159 1.27250794 1.04114286.63625397 9.60165082-1.27250794 16.7739683 1.27250794 35.63022232 6.47822224 48.18177791 1.79307937 4.39593652 2.66069842 4.97434922 4.33809525 3.00774604 1.50387302-1.67739683 2.25580953-1.44603175 3.29695239 1.1568254.92546032 2.3136508 1.21466667 4.0488889.63625397 4.0488889-.17352381 0-2.54501588-.69409524-5.32139684-1.50387302-20.2444445-6.01549208-25.10311118-6.9409524-33.37441279-6.42038097-9.77517463.5784127-17.12101592 3.81752382-23.48355562 10.23790479-4.10673017 4.16457144-7.23015875 8.96539685-8.73403177 13.53485718-1.38819048 4.0488889-2.94990477 11.85746035-2.54501588 12.55155559.86761905 1.38819048 20.76501593.11568254 32.44895247-2.08228572 12.7250794-2.37149207 24.98742864-3.12342858 32.62247628-2.08228572 3.87536509.5784127 4.16457144.92546032 10.52711114 11.91530162 6.88311113 11.97314289 9.19676193 15.27009528 13.53485718 19.60819053 8.21346034 8.0977778 19.14546037 13.47701591 32.33326993 15.79066671 8.56050796 1.50387302 20.76501593.34704762 26.08641277-2.42933334.92546032-.46273016 1.96660318-.86761905 2.3136508-.86761905 1.38819048 0 7.75073018-4.68514287 12.55155559-9.2546032 7.17231748-6.76742859 14.57600004-16.1955556 25.62368261-32.68031755 10.23790479-15.32793655 14.86520639-23.83060324 17.17885719-31.52349215 1.27250794-4.22241271 2.71853969-10.70063495 2.71853969-12.26234924 0-.98330159-1.1568254-.34704762-3.41263493 1.85092064-1.27250794 1.27250794-2.71853969 2.3136508-3.23911112 2.3136508-1.44603175 0-.98330159-1.96660318.86761905-3.75968255.98330159-.92546032 1.7352381-2.14012699 1.7352381-2.77638096 0-2.42933334-9.71733336-18.56704767-15.50146036-25.73936515-11.68393654-14.51815877-25.73936515-26.25993658-40.77809535-33.95282549-3.93320636-2.02444445-5.95765081-3.41263493-6.07333335-4.10673017-.11568254-.63625397-.5784127-2.19796826-1.04114286-3.58615874l-.92546032-2.42933334h-3.87536509c-5.37923811 0-11.85746035-1.79307937-19.02977783-5.2057143l-6.07333335-2.8920635-1.33034921 1.21466667c-1.61955556 1.56171429-2.37149207 1.09898413-3.12342858-1.96660318-.34704762-1.33034921-1.1568254-3.18126985-1.85092064-4.10673017-.92546032-1.33034921-1.04114286-1.7352381-.40488889-2.08228572 3.75968255-2.19796826 6.88311113-4.33809525 7.05663494-4.85866668.40488889-1.09898413-2.71853969-7.46152383-4.85866668-9.8330159-3.35479366-3.87536509-7.86641272-5.14787303-12.60939686-3.64400001zm-9.60165082 9.02323812c1.67739683.40488889 1.67739683.40488889-.80977778.80977778-5.37923811.92546032-8.90755558 4.22241271-12.55155559 11.74177781-1.90876191 3.93320636-2.77638096 5.32139684-3.41263493 5.09003176-1.56171429-.63625397-3.81752382.34704762-6.47822224 2.83422223l-2.66069842 2.42933334.40488889-3.75968255c.17352381-2.08228572.63625397-4.74298414.98330159-6.01549208l.63625397-2.19796826 3.35479366.34704762 3.35479366.40488889.75193651-2.19796826c2.37149207-7.28800002 9.08107939-11.16336511 16.42692068-9.48596828zm17.9307937 12.66723813c.34704762.23136508 1.09898413 2.54501588 1.79307937 5.09003176l1.21466667 4.68514287-1.7352381 2.25580953c-6.07333335 7.92425399-7.57720637 19.02977783-4.39593652 32.62247628 1.50387302 6.53606351 4.80082541 16.42692068 7.5193651 22.73161911 1.27250794 2.77638096 2.25580953 5.2057143 2.25580953 5.26355557 0 .11568254-1.21466667.34704762-2.71853969.52057143-1.56171429.11568254-3.29695239.46273016-3.99104763.69409524-1.04114286.28920635-1.27250794.11568254-1.56171429-1.33034921-.17352381-.92546032-1.04114286-2.54501588-1.90876191-3.52831747-1.96660318-2.37149207-2.54501588-1.67739683-2.54501588 3.23911112 0 2.8920635-.17352381 3.64400001-.86761905 3.64400001-1.56171429 0-3.87536509 1.90876191-4.68514287 3.87536509-.46273016 1.04114286-.80977778 3.35479366-.80977778 5.14787303v3.29695239l1.79307937-2.71853969c2.3136508-3.4704762 4.56946033-4.68514287 6.99879367-3.87536509 2.37149207.86761905 2.77638096.80977778 2.77638096-.23136508 0-.52057143.63625397-1.56171429 1.44603175-2.3136508 2.8920635-2.94990477 8.50266669-1.1568254 10.06438098 3.18126985.52057143 1.61955556.46273016 1.85092064-.86761905 2.3136508-.80977778.34704762-1.96660318.5784127-2.54501588.5784127-3.52831747 0-16.48476195 4.97434922-19.26114291 7.40368256-.52057143.46273016-1.1568254.69409524-1.38819048.52057143-.63625397-.69409524-2.94990477-14.17111115-3.75968255-21.69047625-.52057143-5.55276192-.52057143-8.56050796 0-13.93974607.92546032-9.2546032 2.94990477-15.38577782 9.8330159-30.13530167 3.75968255-7.98209526 5.89980954-15.09657147 6.30469843-20.88069847.28920635-4.45377779.23136508-5.14787303-.5784127-5.49492065-.52057143-.17352381-.80977778-.5784127-.63625397-.86761905.34704762-.63625397 1.44603175-.63625397 2.25580953-.05784127zm-4.16457144 4.97434922l1.61955556 3.64400001-2.25580953 5.72628573c-3.75968255 9.2546032-4.85866668 11.79961908-5.32139684 11.79961908-.23136508 0-.69409524-.69409524-1.09898413-1.50387302-.5784127-1.27250794-.52057143-1.7352381.23136508-2.54501588 1.21466667-1.33034921 1.09898413-1.7352381-.40488889-1.56171429-1.09898413.11568254-1.27250794-.11568254-1.1568254-1.21466667.17352381-1.27250794.05784127-1.33034921-1.56171429-.98330159-2.02444445.40488889-2.42933334-.11568254-2.60285715-3.29695239-.05784127-1.67739683.11568254-1.90876191 1.44603175-1.96660318.86761905-.05784127 1.96660318-.23136508 2.42933334-.40488889.98330159-.34704762 2.54501588-4.80082541 1.96660318-5.43707938-.23136508-.17352381-1.7352381.23136508-3.29695239.98330159-3.00774604 1.44603175-4.39593652 1.1568254-3.93320636-.80977778.17352381-.86761905 10.35358733-6.13117462 11.74177781-6.13117462.34704762 0 1.33034921 1.67739683 2.19796826 3.70184128zm15.55930163 4.39593652c.75193651.28920635 3.4704762 1.33034921 6.13117462 2.3136508 3.93320636 1.50387302 4.74298414 2.02444445 4.74298414 3.06558731 0 2.60285715-.63625397 2.83422223-6.13117462 2.42933334-6.47822224-.52057143-6.82526986-.23136508-6.88311113 5.84196827 0 5.43707938-1.1568254 6.88311113-5.43707938 6.82526986h-2.83422223l.5784127 1.56171429c.86761905 2.48717461 3.06558731 4.56946033 4.85866668 4.56946033 1.67739683 0 5.89980954-3.93320636 12.26234924-11.39473019 3.64400001-4.28025398 6.88311113-6.65174605 10.9898413-7.98209526 4.45377779-1.44603175 4.85866668-.75193651.98330159 1.7352381-1.90876191 1.21466667-4.51161906 2.8920635-5.72628573 3.70184128-1.21466667.80977778-4.10673017 3.81752382-6.42038097 6.70958732-9.89085717 12.37803178-14.74952385 14.22895242-18.16215878 6.99879367-2.8920635-6.24685716-.5784127-16.02203179 5.66844446-23.94628578 2.48717461-3.12342858 3.12342858-3.41263493 5.37923811-2.42933334zm-36.90273026 7.75073018c.5784127 1.09898413 1.79307937 2.71853969 2.71853969 3.58615874l1.67739683 1.56171429-2.94990477 2.02444445c-3.81752382 2.54501588-8.61834923 4.16457144-12.49371432 4.16457144-1.67739683 0-3.06558731-.11568254-3.06558731-.23136508 0-.63625397 3.00774604-5.89980954 4.39593652-7.69288891 1.96660318-2.54501588 5.84196827-5.37923811 7.40368256-5.37923811.80977778 0 1.61955556.69409524 2.3136508 1.96660318zm70.39282559 11.39473019c11.68393654 5.95765081 16.36907941 9.2546032 20.47580958 14.40247623 3.18126985 3.93320636 3.81752382 4.56946033 7.80857145 7.11447621 1.44603175.92546032 2.42933334 2.3136508 3.4704762 4.85866668.80977778 1.96660318 3.81752382 6.99879367 6.59390478 11.16336511 4.56946033 6.82526986 8.15561907 13.47701591 9.2546032 17.17885719.52057143 1.61955556-1.33034921 2.25580953-3.35479366 1.21466667-.75193651-.40488889-5.14787303-4.68514287-9.71733336-9.42812701-8.15561907-8.50266669-11.22120638-12.7250794-12.60939686-17.352381-1.21466667-4.22241271-1.09898413-3.99104763-2.3136508-2.8920635-.5784127.52057143-1.27250794 1.79307937-1.50387302 2.77638096l-.40488889 1.85092064-1.56171429-1.90876191c-.86761905-1.04114286-2.60285715-3.87536509-3.81752382-6.3625397-3.29695239-6.53606351-5.784127-8.73403177-12.7250794-11.39473019-7.75073018-2.94990477-11.22120638-4.51161906-12.84076194-5.84196827l-1.38819048-1.1568254 2.19796826-4.45377779c1.21466667-2.42933334 2.42933334-4.45377779 2.71853969-4.45377779.28920635 0 4.68514287 2.14012699 9.71733336 4.68514287zm-72.07022242 5.26355557c-4.91650795 7.92425399-7.34584129 16.36907941-8.61834923 29.55688897l-.75193651 7.63504764-.46273016-4.6273016c-.5784127-5.61060319-.05784127-16.42692068 1.1568254-24.2933334 1.1568254-7.5193651 1.21466667-7.63504764 3.35479366-8.38698415 1.04114286-.28920635 3.00774604-1.33034921 4.45377779-2.3136508 1.44603175-.92546032 2.77638096-1.67739683 3.00774604-1.67739683.23136508-.05784127-.75193651 1.79307937-2.14012699 4.10673017zm12.43587305 3.29695239c-4.85866668 11.22120638-6.9409524 20.01307942-6.9409524 29.32552389 0 2.94990477-.28920635 6.01549208-.63625397 6.82526986-.5784127 1.1568254-.46273016 1.79307937.5784127 3.4704762.75193651 1.1568254 1.1568254 2.54501588.98330159 3.06558731-.46273016 1.38819048-5.09003176 4.28025398-7.11447621 4.39593652l-1.61955556.11568254.05784127-10.9898413c0-6.24685716.34704762-12.84076194.75193651-15.32793655 2.02444445-11.68393654 6.18901589-19.78171434 12.43587305-24.35117467 3.64400001-2.71853969 3.87536509-2.14012699 1.50387302 3.4704762zm57.55206365 21.74831752c3.81752382.80977778 7.86641272 1.44603175 8.96539685 1.44603175 5.14787303.05784127 6.3625397.5784127 7.80857145 3.4704762 1.90876191 3.70184128 5.784127 7.46152383 11.16336511 10.75847622 5.84196827 3.64400001 11.74177781 8.32914288 12.78292067 10.23790479.75193651 1.44603175.69409524 1.79307937-.75193651 4.45377779-1.27250794 2.3136508-1.56171429 3.52831747-1.44603175 5.84196827l.17352381 3.00774604-2.60285715 1.33034921c-1.38819048.69409524-5.26355557 2.25580953-8.61834923 3.41263493-3.35479366 1.21466667-6.59390478 2.37149207-7.23015875 2.66069842-2.02444445.92546032-11.33688892 2.83422223-19.0876191 3.99104763-5.14787303.80977778-10.58495241 1.1568254-17.17885719 1.1568254h-9.65949209l-.98330159-1.79307937c-.46273016-.98330159-2.08228572-3.52831747-3.4704762-5.55276192-2.48717461-3.64400001-2.60285715-3.93320636-2.42933334-7.63504764l.17352381-3.81752382h1.79307937c2.14012699 0 4.74298414-2.77638096 9.77517463-10.46926987 4.74298414-7.11447621 6.70958732-11.62609527 10.46926987-23.88844451.17352381-.52057143.75193651-.69409524 1.85092064-.40488889.86761905.17352381 4.68514287.98330159 8.50266669 1.79307937zm-38.05955566 34.82044454c-.40488889 3.75968255.52057143 9.08107939 2.25580953 12.84076194.75193651 1.7352381 1.33034921 3.18126985 1.21466667 3.29695239-.17352381.23136508-12.55155559-1.85092064-12.78292067-2.14012699-.40488889-.52057143-2.08228572-8.44482542-2.08228572-9.8330159 0-2.77638096 5.55276192-6.18901589 11.22120638-6.82526986.28920635-.05784127.34704762 1.1568254.17352381 2.66069842zm89.24907961-.28920635c0 .92546032-2.42933334 5.37923811-3.64400001 6.65174605-.75193651.86761905-1.85092064 1.33034921-3.12342858 1.33034921h-1.90876191v-3.41263493c0-1.90876191.11568254-3.75968255.28920635-4.22241271.34704762-.86761905 8.38698415-1.21466667 8.38698415-.34704762zm-131.76241306 10.93200003c5.37923811 3.18126985 13.41917464 10.9898413 19.20330164 18.68273021 2.71853969 3.52831747 7.34584129 10.93200003 10.4114286 16.42692068 7.80857145 14.22895242 12.55155559 20.47580958 18.45136513 24.23549213 1.27250794.75193651 2.14012699 1.50387302 2.02444445 1.67739683-.5784127.52057143-6.18901589-1.56171429-8.73403177-3.23911112-1.44603175-.98330159-4.6273016-3.87536509-6.99879367-6.42038097-3.81752382-4.0488889-4.97434922-5.84196827-10.12222225-16.02203179-3.18126985-6.24685716-7.46152383-13.8819048-9.42812701-16.88965084-4.33809525-6.59390478-12.95644448-15.38577782-18.79841275-19.31898418-2.3136508-1.50387302-4.22241271-2.8920635-4.22241271-3.00774604 0-.46273016 4.33809525 1.56171429 8.21346034 3.87536509zm-23.77276197-2.02444445c6.42038097 1.90876191 12.7250794 6.24685716 17.06317465 11.74177781 2.66069842 3.29695239 4.51161906 6.3625397 4.16457144 6.70958732-.11568254.11568254-4.22241271.28920635-9.13892066.34704762-10.12222225.11568254-22.26888895 1.21466667-29.20984135 2.60285715-3.99104763.80977778-14.05542861 3.81752382-17.17885719 5.14787303-1.56171429.63625397-1.33034921-.69409524 1.33034921-7.34584129 2.83422223-7.17231748 4.85866668-10.46926987 8.56050796-13.93974607 3.12342858-2.94990477 5.55276192-4.33809525 9.31244447-5.37923811 3.75968255-1.04114286 11.39473019-.98330159 15.09657147.11568254z" fill="#070000" stroke-width="1.81127"/></svg>