<?xml version="1.0" encoding="UTF-8" standalone="no"?>
<svg
   xmlns:dc="http://purl.org/dc/elements/1.1/"
   xmlns:cc="http://creativecommons.org/ns#"
   xmlns:rdf="http://www.w3.org/1999/02/22-rdf-syntax-ns#"
   xmlns:svg="http://www.w3.org/2000/svg"
   xmlns="http://www.w3.org/2000/svg"
   xmlns:sodipodi="http://sodipodi.sourceforge.net/DTD/sodipodi-0.dtd"
   xmlns:inkscape="http://www.inkscape.org/namespaces/inkscape"
   width="951.14001"
   height="379.60001"
   viewBox="0 0 951.14 379.60001"
   version="1.1"
   id="SVGRoot"
   sodipodi:docname="SBMUN Wordmark.svg"
   inkscape:version="1.0.1 (c497b03c, 2020-09-10)"
   inkscape:export-filename="/Users/DMY/Downloads/sbmun_wordmark_196dpi.png"
   inkscape:export-xdpi="195.99579"
   inkscape:export-ydpi="195.99579">
  <defs
     id="defs9321" />
  <sodipodi:namedview
     id="base"
     pagecolor="#ffffff"
     bordercolor="#666666"
     borderopacity="1.0"
     inkscape:pageopacity="0.0"
     inkscape:pageshadow="2"
     inkscape:zoom="0.52393427"
     inkscape:cx="345.77434"
     inkscape:cy="217.19463"
     inkscape:document-units="px"
     inkscape:current-layer="layer1"
     inkscape:document-rotation="0"
     showgrid="false"
     inkscape:window-width="1440"
     inkscape:window-height="727"
     inkscape:window-x="0"
     inkscape:window-y="25"
     inkscape:window-maximized="0"
     inkscape:showpageshadow="false"
     inkscape:pagecheckerboard="true" />
  <metadata
     id="metadata9324">
    <rdf:RDF>
      <cc:Work
         rdf:about="">
        <dc:format>image/svg+xml</dc:format>
        <dc:type
           rdf:resource="http://purl.org/dc/dcmitype/StillImage" />
        <dc:title />
      </cc:Work>
    </rdf:RDF>
  </metadata>
  <g
     inkscape:label="Layer 1"
     inkscape:groupmode="layer"
     id="layer1"
     transform="translate(-99.340104,-74.739551)">
    <text
       xml:space="preserve"
       style="font-style:normal;font-variant:normal;font-weight:600;font-stretch:normal;font-size:278.92099999999999227px;line-height:1.25;font-family:'League Spartan';-inkscape-font-specification:'League Spartan, Semi-Bold';font-variant-ligatures:normal;font-variant-caps:normal;font-variant-numeric:normal;font-variant-east-asian:normal;word-spacing:0px;stroke-width:0.999999;"
       x="213.10698"
       y="343.99634"
       id="text9897"><tspan
         sodipodi:role="line"
         id="tspan9895"
         x="213.10698"
         y="343.99634"
         style="font-style:normal;font-variant:normal;font-weight:600;font-stretch:normal;font-size:278.921px;font-family:'League Spartan';-inkscape-font-specification:'League Spartan, Semi-Bold';font-variant-ligatures:normal;font-variant-caps:normal;font-variant-numeric:normal;font-variant-east-asian:normal;stroke-width:0.999999"><tspan
           style="font-style:normal;font-variant:normal;font-weight:bold;font-stretch:normal;font-size:278.921px;font-family:'League Spartan';-inkscape-font-specification:'League Spartan, Bold';font-variant-ligatures:normal;font-variant-caps:normal;font-variant-numeric:normal;font-variant-east-asian:normal"
           id="tspan851">SB</tspan><tspan
           style="font-style:normal;font-variant:normal;font-weight:300;font-stretch:normal;font-size:278.921px;font-family:'League Spartan';-inkscape-font-specification:'League Spartan, Light';font-variant-ligatures:normal;font-variant-caps:normal;font-variant-numeric:normal;font-variant-east-asian:normal;stroke-width:0.999999"
           id="tspan9996"><tspan
   style="font-style:normal;font-variant:normal;font-weight:300;font-stretch:normal;font-size:278.921px;font-family:'League Spartan';-inkscape-font-specification:'League Spartan, Light';font-variant-ligatures:normal;font-variant-caps:normal;font-variant-numeric:normal;font-variant-east-asian:normal;font-feature-settings:&quot;case&quot;, &quot;salt&quot;, &quot;ss01&quot;, &quot;ss02&quot;"
   id="tspan853">M</tspan>UN</tspan></tspan></text>
    <g
       id="g5755"
       transform="translate(101.15209,56.339551)">
      <path
         d="m 35.8,244 1.2,1 c -1.3,-9 -2,-18.8 0.6,-27.4 3.9,-13.8 8.8,-27.2 11.3,-41.5 2,-11.1 4.3,-23.6 3,-34.3 -1.5,5.8 -3,11.5 -6.2,16.5 -12.1,18.7 -24.5,40.7 -16,64.5 -0.2,0.3 -0.5,0.6 -0.8,0.4 -3.4,-7.9 -4.2,-16.8 -6.4,-25.2 -5.9,-22.3 -23,-41 -18,-66.8 -2.7,5.6 -3.7,11.9 -5.1,18 -3,15.8 0,32.5 4.3,47.1 5.3,18.1 23,31.1 32.1,47.7 z"
         id="path5739" />
      <path
         d="m 31.2,128.2 c 4,-8.2 10.5,-16 18.3,-21.8 17.2,-13 36,-29.8 36.3,-51.8 C 80,70.4 62.7,77 51.2,87.8 45.1,93.5 40.4,100.4 37.7,107.6 l -0.4,-0.3 c 1.4,-6.4 4.1,-12.1 6,-18.3 5,-16.8 4.1,-36.9 20.5,-48.2 C 55.4,43 48.3,48.4 42,55.4 v 0 C 28.7,70.1 29.9,91.8 31.6,111 c 0.6,6 0.3,11.1 -0.4,17.2 z"
         id="path5741" />
      <path
         d="M 51.2,80.3 C 60.4,71.7 71,65.3 78.8,55.1 88.1,42.8 96.2,29 108.4,18.4 c -16.5,6.4 -34.3,13 -45,30 -6.3,9.9 -7.3,21.6 -12.2,31.9 z"
         id="path5743" />
      <path
         d="m 58.1,123.8 c 4,-8.1 6.5,-17.3 7.6,-26.2 -1.5,3.8 -3.8,7.3 -7,10.3 -13.4,12.7 -29.1,25.1 -32.1,43.1 -0.4,2.6 -0.7,5.2 -1.4,7.7 -0.6,0.3 -0.6,-0.4 -0.8,-0.6 l 1.7,-22.2 c 1.6,-21.7 -9.8,-45.8 2.7,-64.9 -0.4,-0.1 -0.7,0.3 -1,0.4 -11.4,14.5 -19,30.5 -19,50 0,24.1 13.9,41 15.6,63.6 3.6,-23.6 23.4,-40.4 33.7,-61.2 z"
         id="path5745" />
      <path
         d="m 31.6,271.9 c 12.9,10.2 28.3,18.1 40.1,27.1 -2.3,-5.9 -6.1,-11.3 -7.6,-17.4 -6.9,-27.9 -3.1,-60.3 -15,-86.1 2.2,14.7 -3.6,27.7 -4.9,41.7 -1.1,11.5 0.9,22.7 5.4,32.3 1.3,2.9 3.7,5.4 4.4,8.4 -4.3,-3.9 -7.4,-8.8 -10.3,-13.6 -13.9,-22.5 -43,-37.1 -45,-64.5 v 0 c -1,12.2 0.1,25.1 4.1,35.9 5.5,14.8 16.3,26.3 28.8,36.2 z"
         id="path5747" />
      <path
         d="m 207,345.8 c -22.5,0 -42.7,10.9 -62.4,19.1 -17.9,7.4 -41.6,6 -57.5,-5 7.8,9.8 18.3,15.9 29.2,20 20.1,8 43.6,1.9 60.8,-9.1 12.3,-7.9 22.9,-19.1 37.6,-19.1 23.7,0 48.6,24.3 69.9,46.3 3.3,-2.7 6.8,-5.5 9.5,-8.6 -22.3,-21.2 -53.8,-43.6 -87.1,-43.6 z"
         id="path5749" />
      <path
         d="m 166.8,348.2 c 3.5,-0.9 7.7,-0.6 10.9,-1.8 -13.4,-2.7 -26.3,-6.8 -36.7,-16.3 -14.9,-13.6 -28.1,-28.1 -44,-38.7 12.5,16.8 16,41.2 38.8,49.7 4,1.5 8.7,1.8 12.2,4 -4.4,0.7 -8.2,-0.7 -12.3,-1.6 -29.4,-6.3 -65.2,1.8 -87.2,-23.2 8.3,16.4 25.5,29.3 42.1,34.7 25.5,8.6 52.2,-0.9 76.2,-6.8 z"
         id="path5751" />
      <path
         d="M 117.6,335.9 C 98.5,320.5 95.6,297.4 87.1,277.2 81.8,264.6 73.2,253.3 64,242.3 c 10.1,20.2 5.7,46.2 18.8,65.2 4.1,6 9.8,11.7 15.1,16.4 l -0.2,0.3 C 92.9,322 88.6,318.6 84.2,315 61.3,295.9 26.8,293.5 13.1,262.4 v 0 c 3.7,22.8 21.8,43 41.4,55.8 18.6,12.2 42.5,10.9 63.1,17.7 z"
         id="path5753" />
    </g>
  </g>
</svg>
