<svg viewBox="0 0 349.741 349.741" height="466.321" width="466.321" version="1.0" xmlns="http://www.w3.org/2000/svg"><g style="display:inline;mix-blend-mode:normal"><path d="M88.819 60.656c-12.398 4.83-25.71 9.75-33.75 22.5-4.733 7.455-5.415 16.267-9.113 23.954 6.863-6.45 14.85-11.25 20.67-18.914 6.998-9.248 13.08-19.538 22.185-27.525zm184.305 0c9.112 7.987 15.195 18.277 22.192 27.525 5.805 7.71 13.793 12.48 20.64 18.93-3.705-7.688-4.387-16.5-9.097-23.948-8.055-12.75-21.36-17.662-33.75-22.5zM55.369 77.508c-6.338 1.65-11.663 5.745-16.38 10.995-9.915 11.032-9.06 27.21-7.733 41.67a61.041 61.041 0 0 1-.3 12.863 46.935 46.935 0 0 1 13.695-16.38c12.885-9.75 27-22.32 27.195-38.88-4.29 11.902-17.272 16.83-25.89 24.974a40.418 40.418 0 0 0-10.125 14.88l-.315-.254c1.08-4.763 3.098-9.083 4.5-13.695 3.75-12.615 3.09-27.698 15.368-36.135zm251.25 0c12.225 8.475 11.587 23.528 15.337 36.173 1.373 4.612 3.39 8.932 4.463 13.695l-.308.255a40.567 40.567 0 0 0-10.155-14.88c-8.632-8.146-21.615-13.073-25.89-24.99.195 16.56 14.31 29.144 27.203 38.88a47.002 47.002 0 0 1 13.687 16.395 61.027 61.027 0 0 1-.322-12.848c1.327-14.46 2.182-30.675-7.733-41.67-4.732-5.25-10.042-9.337-16.365-10.957zM29.164 100.135c-.323-.06-.503.195-.75.315-8.558 10.913-14.25 22.868-14.25 37.5 0 18.106 10.41 30.75 11.707 47.738 2.685-17.737 17.573-30.337 25.283-45.945a62.25 62.25 0 0 0 5.707-19.65 21.45 21.45 0 0 1-5.25 7.755c-10.012 9.495-21.825 18.855-24.097 32.303a46.334 46.334 0 0 1-1.05 5.76c-.435.187-.435-.308-.623-.428l1.245-16.687c1.23-16.26-7.38-34.365 2.07-48.698zm303.592 0c9.42 14.333.84 32.423 2.055 48.675l1.245 16.688c-.187.12-.187.623-.622.428a46.338 46.338 0 0 1-1.05-5.76c-2.25-13.448-14.085-22.808-24.098-32.303a21.45 21.45 0 0 1-5.25-7.755 62.175 62.175 0 0 0 5.708 19.65c7.71 15.608 22.597 28.208 25.282 45.945 1.298-16.995 11.708-29.632 11.708-47.73 0-14.655-5.708-26.61-14.25-37.5-.248-.12-.428-.375-.75-.315zM10.894 145.173c-1.995 4.2-2.798 8.947-3.855 13.5-2.25 11.843 0 24.413 3.217 35.295 4.028 13.613 17.355 23.355 24.113 35.828l.93.75c-.99-6.75-1.5-14.063.427-20.528 2.91-10.342 6.578-20.392 8.498-31.117 1.5-8.325 3.21-17.67 2.25-25.74-1.11 4.35-2.25 8.647-4.65 12.345-9.075 14.047-18.39 30.525-12 48.352-.15.195-.36.443-.593.315-2.557-5.895-3.12-12.6-4.777-18.915-4.403-16.747-17.25-30.75-13.5-50.1zm340.162 0c3.75 19.365-9.105 33.353-13.5 50.1-1.657 6.315-2.25 13.02-4.777 18.915-.233.128-.443-.12-.593-.315 6.36-17.827-2.955-34.305-12-48.352-2.392-3.698-3.54-7.995-4.65-12.345-.982 8.07.75 17.415 2.25 25.74 1.92 10.725 5.588 20.775 8.498 31.117 1.92 6.465 1.417 13.755.427 20.528l.93-.75c6.75-12.473 20.085-22.215 24.113-35.828 3.217-10.882 5.445-23.452 3.217-35.295-1.057-4.582-1.86-9.322-3.855-13.5zM44.33 193.428c1.672 11.025-2.693 20.76-3.705 31.245a47.01 47.01 0 0 0 4.02 24.233c.99 2.137 2.782 4.08 3.292 6.262-3.232-2.91-5.527-6.63-7.747-10.237-10.425-16.868-32.25-27.833-33.75-48.36-.75 9.127.045 18.81 3.09 26.925 4.23 11.25 12.36 19.912 21.75 27.292 9.682 7.635 21.247 13.598 30.075 20.31-1.74-4.395-4.568-8.452-5.715-13.087-5.19-21-2.295-45.195-11.25-64.583zm273.285 0c-9 19.388-6.083 43.62-11.25 64.583-1.155 4.635-3.975 8.692-5.715 13.087 8.82-6.712 20.385-12.675 30.075-20.31 9.367-7.38 17.497-16.035 21.75-27.292 3.045-8.115 3.832-17.798 3.09-26.925-1.5 20.527-23.34 31.5-33.75 48.36-2.25 3.607-4.5 7.327-7.748 10.237.503-2.182 2.303-4.125 3.293-6.262a47.025 47.025 0 0 0 4.02-24.24c-1.013-10.5-5.385-20.25-3.705-31.238zm-261.99 35.145c7.575 15.135 4.305 34.643 14.13 48.923 3.075 4.5 7.365 8.737 11.332 12.33l-.187.187c-3.593-1.672-6.825-4.177-10.095-6.892-17.19-14.295-43.043-16.118-53.348-39.413 2.79 17.1 16.365 32.25 31.02 41.85 13.943 9.128 31.8 8.115 47.25 13.223-14.257-11.528-16.425-28.845-22.77-43.995-3.96-9.435-10.417-17.918-17.295-26.16zm250.732 0c-6.885 8.25-13.342 16.725-17.302 26.16-6.375 15.188-8.543 32.505-22.845 44.048 15.48-5.108 33.337-4.095 47.25-13.223 14.647-9.6 28.23-24.75 31.02-41.85-10.29 23.295-36.143 25.118-53.333 39.413-3.27 2.715-6.51 5.25-10.095 6.892l-.187-.187c3.967-3.585 8.25-7.868 11.332-12.33 9.825-14.25 6.555-33.75 14.13-48.923zM80.344 265.496c9.345 12.585 12 30.87 29.1 37.312 3 1.133 6.495 1.32 9.112 3-3.292.503-6.172-.51-9.24-1.162-22.02-4.695-48.922 1.35-65.422-17.43 6.262 12.27 19.155 21.952 31.545 26.04 19.2 6.337 39.202-.75 57.24-5.205 2.602-.645 5.76-.435 8.175-1.32-10.043-2.048-19.725-5.093-27.503-12.203-11.167-10.215-21.06-21.082-33-29.025zm201.262 0c-11.947 7.942-21.84 18.81-33 29.025-7.777 7.11-17.46 10.155-27.502 12.195 2.407.885 5.565.675 8.167 1.32 18 4.5 38.048 11.542 57.24 5.205 12.39-4.088 25.283-13.77 31.545-26.04-16.5 18.75-43.402 12.75-65.422 17.422-3.068.66-5.948 1.673-9.24 1.17 2.617-1.665 6.09-1.852 9.112-3 17.093-6.435 19.755-24.75 29.108-37.305zm-118.762 40.717c-16.905 0-32.003 8.168-46.838 14.325-13.417 5.565-31.215 4.463-43.102-3.75 5.88 7.38 13.755 11.925 21.877 15 15.098 6 32.723 1.403 45.57-6.81 9.255-5.917 17.19-14.302 28.208-14.302 1.967.009 3.927.222 5.85.637-15.473 6.195-29.535 17.115-40.5 27.6a56.834 56.834 0 0 0 7.102 6.458c12.248-12.66 26.13-26.363 39.975-32.018 13.845 5.655 27.75 19.358 39.983 32.018a57.3 57.3 0 0 0 7.095-6.458c-10.98-10.5-25.043-21.405-40.5-27.6a28.335 28.335 0 0 1 5.85-.637c11.017 0 18.952 8.385 28.207 14.302 12.848 8.213 30.473 12.833 45.57 6.81 8.123-3.082 15.998-7.627 21.878-15-11.888 8.198-29.685 9.3-43.103 3.75-14.835-6.157-29.932-14.325-46.83-14.325a62.684 62.684 0 0 0-18.18 2.813 62.632 62.632 0 0 0-18.127-2.813z" style="stroke-width:.75;fill:#fff;fill-opacity:1" transform="translate(-6.13 -22.188)"/><path style="color:#000;font-style:normal;font-variant:normal;font-weight:400;font-stretch:normal;font-size:medium;line-height:normal;font-family:sans-serif;font-variant-ligatures:normal;font-variant-position:normal;font-variant-caps:normal;font-variant-numeric:normal;font-variant-alternates:normal;font-variant-east-asian:normal;font-feature-settings:normal;font-variation-settings:normal;text-indent:0;text-align:start;text-decoration:none;text-decoration-line:none;text-decoration-style:solid;text-decoration-color:#000;letter-spacing:normal;word-spacing:normal;text-transform:none;writing-mode:lr-tb;direction:ltr;text-orientation:mixed;dominant-baseline:auto;baseline-shift:baseline;text-anchor:start;white-space:normal;shape-padding:0;shape-margin:0;inline-size:0;clip-rule:nonzero;display:inline;overflow:visible;visibility:visible;opacity:1;isolation:auto;mix-blend-mode:normal;color-interpolation:sRGB;color-interpolation-filters:linearRGB;solid-color:#000;solid-opacity:1;vector-effect:none;fill:#fff;fill-opacity:1;fill-rule:nonzero;stroke:none;stroke-width:3;stroke-linecap:butt;stroke-linejoin:miter;stroke-miterlimit:4;stroke-dasharray:none;stroke-dashoffset:0;stroke-opacity:1;color-rendering:auto;image-rendering:auto;shape-rendering:auto;text-rendering:auto;enable-background:accumulate;stop-color:#000;stop-opacity:1" d="M180.964 48.747c-68.254 0-123.618 55.364-123.618 123.618 0 19.128 4.35 37.241 12.112 53.41 0-.015.007-.027.007-.041.017-.713.076-1.269.15-1.867.14-1.122.353-2.338.612-3.641-6.16-14.24-9.66-29.9-9.862-46.361H81.79a99.352 99.352 0 0 0 2.361 20.121c.837-.784 1.7-1.524 2.587-2.228a96.578 96.578 0 0 1-1.948-17.893h21.423c.062 3.138.32 6.227.757 9.26.98-.146 1.974-.258 2.98-.345a72.326 72.326 0 0 1-.737-8.915h20.867c-.187-.992-.362-1.992-.525-3h-20.342c.37-18.027 7.389-34.402 18.69-46.81.655-2.071 1.516-4.06 2.517-5.998-.232-.044-.446-.076-.687-.127-.186.175-.375.346-.559.523-5.131-4.957-10.01-10.01-15.162-15.163a96.6 96.6 0 0 1 12.24-10.053c.48-1.733 1.109-3.344 2.471-5.188a99.647 99.647 0 0 0-16.82 13.133l-15.16-15.16c21.403-20.882 50.54-33.864 82.722-34.256v16.101c1.028.303 2.032.687 3 1.15V51.766c32.182.392 61.32 13.373 82.723 34.254l-15.162 15.162c-16.18-15.701-37.692-25.928-61.552-27.716.087.095.178.186.262.283a23.35 23.35 0 0 1 2.234 2.948c22.048 2.277 41.881 11.987 56.948 26.593l-12.629 12.629c.877.53 1.75 1.07 2.618 1.624l12.132-12.132c12.539 12.935 21.468 29.382 25.186 47.726a171.482 171.482 0 0 1 4.065 6.143c-2.853-21.63-12.675-41.067-27.143-55.977l15.162-15.162c20.88 21.404 33.863 50.542 34.256 82.724h-15.54c.39.772.702 1.476 1.017 2.19a7.203 7.203 0 0 1 1.644.81h12.879c-.393 32.182-13.375 61.32-34.256 82.723l-9.291-9.292c-.62.807-1.247 1.633-1.849 2.394l9.02 9.019c-21.404 20.88-50.542 33.863-82.724 34.255v-20.026a70.002 70.002 0 0 1-3-1.238v21.264c-32.182-.392-61.32-13.375-82.724-34.255l15.163-15.163c17.447 16.93 41.092 27.5 67.197 27.983a65.95 65.95 0 0 1-6.451-3.335c-22.725-1.945-43.187-11.777-58.638-26.756l11.638-11.638c-1.528.125-3.094.278-4.707.464l-9.052 9.053a96.687 96.687 0 0 1-5.946-6.734c-1.121.165-2.269.32-3.428.466a99.792 99.792 0 0 0 7.266 8.376l-15.163 15.163a121.03 121.03 0 0 1-17.15-22.244c-.117-.015-.232-.025-.35-.042a10.662 10.662 0 0 1-2.117-.488c-.42-.142-.99-.257-1.66-.615 21.238 37.48 61.482 62.784 107.622 62.784 68.255 0 123.619-55.364 123.619-123.618 0-68.254-55.364-123.618-123.619-123.618zM94.621 88.142l15.16 15.161c-17.009 17.529-27.602 41.312-27.992 67.562H60.365c.393-32.182 13.375-61.319 34.256-82.723zm17.269 17.27 15.162 15.162c-12.592 13.105-20.455 30.785-20.84 50.291H84.789c.389-25.438 10.638-48.472 27.1-65.454zm115.718 58.855a47.66 47.66 0 0 1 .665 6.598h-15.152a77.728 77.728 0 0 1-1.35 3h16.502a47.098 47.098 0 0 1-8.168 25.124c.51-.07 1.016-.142 1.516-.22l.059-.01c.768-.115 1.563-.242 2.36-.371a50.043 50.043 0 0 0 7.233-24.523h9c-1.197-.96-2.33-1.953-3.36-3h-5.64a50.525 50.525 0 0 0-.6-6.35c-.129-.001 0 0-.163-.003h.085c-1.256 0-2.115-.107-2.987-.245zm24.466 17.827a71.466 71.466 0 0 1-1.806 8.983c1.04-.419 1.96-.808 2.625-1.091.18-1.998.663-3.972 1.456-5.876-.436-.442-.752-.826-1.27-1.24-.312-.25-.665-.515-1.005-.776zm-50.947 8.312c-.27.31-.54.611-.812.902-.394.422-.826.84-1.279 1.25l7.267 7.267c1.45-.006 2.853-.023 4.177-.066zm-65.65 38.988a89.43 89.43 0 0 0-2.816.025 74.932 74.932 0 0 0 13.925 9.344c-.157-.272-.29-.496-.451-.776a229.656 229.656 0 0 0-2.599-4.383 71.842 71.842 0 0 1-6.057-4.153c-.64-.027-1.3-.048-2.002-.057z" transform="translate(-6.13 -22.188)"/></g><g style="display:inline"><g style="display:inline;fill:#fff;fill-opacity:1;stroke-width:1.81127"><path style="fill:#fff;fill-opacity:1;stroke-width:1.81127" d="M1631 3387c-22-7-45-27-68-58l-34-48-34 15c-45 19-140 18-198-2-62-21-131-83-153-140l-19-45-41 6c-37 5-44 3-66-23-26-32-52-134-64-254-6-67-6-68 17-68 24 0 190 25 242 36 25 6 18-4-50-72-84-85-130-164-153-263-12-51-12-55 9-70 22-17 22-18 11-166-22-290 22-616 112-833 31-76 46-86 75-52 26 29 39 25 57-20 16-40 21-70 11-70-3 0-44 12-92 26-350 104-434 120-577 111-169-10-296-66-406-177-71-72-125-155-151-234-24-70-51-205-44-217 15-24 359-2 561 36 220 41 432 54 564 36 67-10 72-16 182-206 119-207 159-264 234-339 142-140 331-233 559-273 148-26 359-6 451 42 16 8 34 15 40 15 24 0 134 81 217 160 124 117 252 280 443 565 177 265 257 412 297 545 22 73 47 185 47 212 0 17-20 6-59-32-22-22-47-40-56-40-25 0-17 34 15 65 17 16 30 37 30 48 0 42-168 321-268 445-202 251-445 454-705 587-68 35-103 59-105 71-2 11-10 38-18 62l-16 42h-67c-93 0-205 31-329 90l-105 50-23-21c-28-27-41-19-54 34-6 23-20 55-32 71-16 23-18 30-7 36 65 38 119 75 122 84 7 19-47 129-84 170-58 67-136 89-218 63zm-166-156c29-7 29-7-14-14-93-16-154-73-217-203-33-68-48-92-59-88-27 11-66-6-112-49l-46-42 7 65c3 36 11 82 17 104l11 38 58-6 58-7 13 38c41 126 157 193 284 164zm310-219c6-4 19-44 31-88l21-81-30-39c-105-137-131-329-76-564 26-113 83-284 130-393 22-48 39-90 39-91 0-2-21-6-47-9-27-2-57-8-69-12-18-5-22-2-27 23-3 16-18 44-33 61-34 41-44 29-44-56 0-50-3-63-15-63-27 0-67-33-81-67-8-18-14-58-14-89v-57l31 47c40 60 79 81 121 67 41-15 48-14 48 4 0 9 11 27 25 40 50 51 147 20 174-55 9-28 8-32-15-40-14-6-34-10-44-10-61 0-285-86-333-128-9-8-20-12-24-9-11 12-51 245-65 375-9 96-9 148 0 241 16 160 51 266 170 521 65 138 102 261 109 361 5 77 4 89-10 95-9 3-14 10-11 15 6 11 25 11 39 1zm-72-86 28-63-39-99c-65-160-84-204-92-204-4 0-12 12-19 26-10 22-9 30 4 44 21 23 19 30-7 27-19-2-22 2-20 21 3 22 1 23-27 17-35-7-42 2-45 57-1 29 2 33 25 34 15 1 34 4 42 7 17 6 44 83 34 94-4 3-30-4-57-17-52-25-76-20-68 14 3 15 179 106 203 106 6 0 23-29 38-64zm269-76c13-5 60-23 106-40 68-26 82-35 82-53 0-45-11-49-106-42-112 9-118 4-119-101 0-94-20-119-94-118h-49l10-27c15-43 53-79 84-79 29 0 102 68 212 197 63 74 119 115 190 138 77 25 84 13 17-30-33-21-78-50-99-64s-71-66-111-116c-171-214-255-246-314-121-50 108-10 277 98 414 43 54 54 59 93 42zm-638-134c10-19 31-47 47-62l29-27-51-35c-66-44-149-72-216-72-29 0-53 2-53 4 0 11 52 102 76 133 34 44 101 93 128 93 14 0 28-12 40-34zm1217-197c202-103 283-160 354-249 55-68 66-79 135-123 25-16 42-40 60-84 14-34 66-121 114-193 79-118 141-233 160-297 9-28-23-39-58-21-13 7-89 81-168 163-141 147-194 220-218 300-21 73-19 69-40 50-10-9-22-31-26-48l-7-32-27 33c-15 18-45 67-66 110-57 113-100 151-220 197-134 51-194 78-222 101l-24 20 38 77c21 42 42 77 47 77s81-37 168-81zm-1246-91c-85-137-127-283-149-511l-13-132-8 80c-10 97-1 284 20 420 20 130 21 132 58 145 18 5 52 23 77 40 25 16 48 29 52 29 4 1-13-31-37-71zm215-57c-84-194-120-346-120-507 0-51-5-104-11-118-10-20-8-31 10-60 13-20 20-44 17-53-8-24-88-74-123-76l-28-2 1 190c0 108 6 222 13 265 35 202 107 342 215 421 63 47 67 37 26-60zm995-376c66-14 136-25 155-25 89-1 110-10 135-60 33-64 100-129 193-186 101-63 203-144 221-177 13-25 12-31-13-77-22-40-27-61-25-101l3-52-45-23c-24-12-91-39-149-59-58-21-114-41-125-46-35-16-196-49-330-69-89-14-183-20-297-20h-167l-17 31c-8 17-36 61-60 96-43 63-45 68-42 132l3 66h31c37 0 82 48 169 181 82 123 116 201 181 413 3 9 13 12 32 7 15-3 81-17 147-31zm-658-602c-7-65 9-157 39-222 13-30 23-55 21-57-3-4-217 32-221 37-7 9-36 146-36 170 0 48 96 107 194 118 5 1 6-20 3-46zm1543 5c0-16-42-93-63-115-13-15-32-23-54-23h-33v59c0 33 2 65 5 73 6 15 145 21 145 6zm-2278-189c93-55 232-190 332-323 47-61 127-189 180-284 135-246 217-354 319-419 22-13 37-26 35-29-10-9-107 27-151 56-25 17-80 67-121 111-66 70-86 101-175 277-55 108-129 240-163 292-75 114-224 266-325 334-40 26-73 50-73 52 0 8 75-27 142-67zm-411 35c111-33 220-108 295-203 46-57 78-110 72-116-2-2-73-5-158-6-175-2-385-21-505-45-69-14-243-66-297-89-27-11-23 12 23 127 49 124 84 181 148 241 54 51 96 75 161 93s197 17 261-2z" transform="matrix(.05784 0 0 -.05784 70.03 248.771)"/></g></g></svg>