<svg version="1.1" viewBox="0.0 0.0 2400.0 600.0" fill="none" stroke="none" stroke-linecap="square" stroke-miterlimit="10" xmlns:xlink="http://www.w3.org/1999/xlink" xmlns="http://www.w3.org/2000/svg"><clipPath id="p.0"><path d="m0 0l2400.0 0l0 600.0l-2400.0 0l0 -600.0z" clip-rule="nonzero"/></clipPath><g clip-path="url(#p.0)"><path fill="#000000" fill-opacity="0.0" d="m0 0l2400.0 0l0 600.0l-2400.0 0z" fill-rule="evenodd"/><path fill="#000000" d="m261.18427 117.258064l4.2701416 0.19911957l2.1835022 0.3955536l1.5885315 0.39823914l-0.49542236 0.49510956l-2.385437 0.39823914l-3.0773926 0.6942291l-4.170532 1.886261l-2.4823608 1.6871414l-3.572815 3.4711456l-4.369751 6.5494385l-2.1835175 4.267639l-2.086609 4.1680603l-1.9842834 3.175171l-0.8938751 0.6969147l-0.39846802 0l-0.99349976 -0.29867554l-2.1835175 0.19911194l-2.6816254 1.0897827l-2.8781586 2.0853882l-1.4888916 1.3884583l-4.2701263 3.8693848l0 0l0.69462585 -5.952072l0.5950165 -5.459671l0.8938751 -4.068512l1.0931091 -3.4738312l5.2609253 0.5973511l5.263626 0.5946808l1.190033 -3.4738464l0.7969513 -2.0826874l1.9842834 -3.772522l2.5820007 -3.2747192l2.9777832 -2.58049l3.4758759 -1.9831314l3.7747192 -1.2915878l3.971283 -0.59467316zm24.724213 22.627052l0.49539185 0.29599l1.8873596 3.1751556l1.0931091 2.3840637l2.4823914 5.7556458l-3.5755005 9.03038l-3.871643 9.6250305l-3.0801086 7.0445557l-1.0904236 1.7866974l-0.29882812 0.1991272l-0.794281 -0.5946655l-0.99346924 -1.7867126l-0.49542236 -1.3884583l0.09963989 -1.7866974l0.7942505 -0.8933563l1.190033 -1.3911438l0 -0.9902191l-0.99349976 -0.0995636l-0.7942505 0l-1.190033 0.0995636l-0.7942505 -0.8933563l0.099609375 -1.0924683l0.19656372 -1.2888947l-0.9908142 -0.59736633l-1.6881409 0.2986908l-1.0931091 0.19911194l-1.4888611 -0.19911194l-0.8938904 -1.0924835l-0.49539185 -2.2817993l-0.099609375 -1.7866974l0 -1.687149l0.89385986 -1.2888947l1.3892822 -0.0995636l2.1835022 -0.29867554l1.6881409 -0.3955536l0.59503174 -0.39823914l1.2923279 -2.2818146l0.99349976 -2.87648l0.39578247 -2.4809265l-0.19924927 -0.49780273l-0.49539185 -0.0995636l-2.8781738 0.7937927l-1.8873596 0.7937927l-1.6881104 0.7937927l-2.5820007 0.6969147l-1.5885315 -0.29867554l-0.49539185 -1.3884583l0.1965332 -1.0924683l0.5977173 -0.6942291l4.7655334 -2.879181l6.453644 -3.3742676l5.4601746 -2.3813782l1.2923584 -0.29599zm-33.959106 21.93013l0.99349976 0.0995636l1.8846588 1.5875854l0.7969513 1.3884583l0.7942505 1.3911438l2.382782 3.0756073l1.0903931 1.189331l2.6816406 2.4809265l-4.665924 3.1778564l-2.283142 1.4880219l-4.9647675 2.381363l-5.1640015 1.687149l-4.964752 0.99290466l-2.3827667 0l-3.6751099 -0.0995636l-1.0931091 -0.19911194l0.597702 -1.687149l4.36705 -7.6419067l1.8873749 -2.87648l1.2923431 -1.4880219l3.1770172 -2.9787292l3.3762512 -2.381363l2.8781738 -1.4880219l0.9934845 -0.0995636zm58.78293 -9.923721l1.8846741 0.1991272l1.2923279 0.5946655l3.3762512 1.2915955l6.3540344 2.381363l3.971283 1.5875854l2.78125 1.5875702l0.6946411 0.9929199l0 0.5946655l0 1.4880219l-0.6946411 1.7866974l-1.9869995 0.7937927l-3.9712524 0l-2.9777832 -0.1991272l-3.5755005 -0.29599l-3.5755005 0.09687805l-1.588501 0.49780273l-0.99349976 0.89334106l-0.6946411 1.4880219l-0.39578247 3.2747192l-0.099609375 3.2747192l0 2.9760437l-0.89385986 4.267639l-1.3892822 1.9858093l-1.2923584 0.7937927l-2.5820007 0.6942291l-6.8494263 0l0.89385986 2.4809265l0.59503174 1.4880219l1.6881409 2.58049l2.0838928 1.9858246l2.1862183 1.0897827l1.0904236 0.0995636l1.0931091 -0.1991272l3.4758606 -2.2818146l4.865143 -4.563614l6.254425 -6.7485657l3.6751099 -4.1680603l2.1835327 -2.4809418l4.1705017 -3.9689484l4.170532 -3.075592l4.4693604 -2.2845001l2.3827515 -0.7937927l2.382782 -0.7937927l2.8781433 -0.49510193l0.39846802 0.79377747l-1.986969 1.7867126l-2.0839233 1.3884583l-5.1640015 3.2747192l-3.9712524 2.58049l-1.6881409 1.3884583l-5.559784 5.7556458l-2.8808594 3.4738464l-2.8781433 3.5733948l-5.064392 5.7556458l-4.5689697 4.267639l-3.8716736 2.7769165l-3.4758606 1.2915955l-2.8781738 -0.0995636l-2.5820007 -1.5875854l-2.283142 -2.8791656l-1.0931091 -2.0826874l-0.7942505 -1.886261l-0.8938904 -4.1680756l-0.19921875 -4.563614l0.4980774 -4.7654266l1.0904236 -4.9618683l1.8873596 -5.0614166l2.4823914 -5.058731l3.0773926 -4.9618683l1.8873596 -2.381363l1.2896729 -1.6871338l2.1862183 -2.0853882l1.7877502 -0.7937927zm-54.413177 32.84677l-0.39848328 1.3911438l-2.977768 5.058731l-2.78125 4.7654266l-4.4666595 9.923721l-3.179718 11.31218l-2.3827667 13.098892l-0.7942505 7.542343l-1.190033 12.105972l-0.6946411 -7.343231l-0.29885864 -3.5733948l-0.099609375 -9.129944l0.49539185 -10.418823l0.99349976 -10.4188385l0.69462585 -4.7654266l1.1927338 -7.440094l1.4888916 -4.267639l1.4888916 -1.1920319l1.1927338 -0.39553833l1.389267 -0.49780273l3.7747192 -1.9831238l1.8846741 -1.1920319l3.2766418 -1.9858246l1.3919678 -0.5946655zm18.467102 3.772522l0.29882812 0.9902191l-1.1927185 3.8720703l-1.2896423 2.9760437l-2.6816406 6.5494385l-4.1705017 12.105972l-2.68161 11.314865l-1.2896423 10.916641l-0.09963989 5.45697l-0.099609375 3.4738312l-0.49539185 5.8552094l-0.39846802 1.4880219l-0.59503174 1.1893463l0.39846802 2.4809418l1.0904236 1.7866821l0.7942505 1.3884583l0.7942505 2.6800537l0 0.7937927l-0.49539185 0.89334106l-2.5820007 2.1849365l-3.4758606 2.182251l-3.3762665 1.3884583l-1.389267 0.29870605l-2.4823914 0.09954834l0.099624634 -17.266953l0 -7.542343l0.69462585 -12.902466l0.39848328 -3.7698212l1.389267 -6.7485657l2.5820007 -8.930801l2.1835327 -5.357422l2.4823914 -4.7654266l2.7812195 -4.2649384l3.0773926 -3.772522l3.3762817 -3.2747192l1.7877197 -1.3884583l1.984314 -1.3911438l1.8873596 -0.9902191zm76.65497 -13.002014l3.971283 1.6871338l11.421112 5.6560974l6.5532837 3.4738312l10.2256775 5.755661l7.4471436 5.2605286l5.6593933 5.357422l2.4823914 2.8791656l3.2766418 4.068512l4.964752 4.563614l4.0708923 2.6800537l1.5885315 1.1920319l2.68161 3.6702728l1.1927185 2.779602l1.3892822 2.87648l5.6593933 9.627731l3.3762512 5.0614166l5.2636414 8.137024l5.955536 10.817078l2.5820007 5.855194l0.794281 2.3813782l0.19921875 0.89334106l-0.5950012 1.2889099l-1.5885315 0.4951172l-2.0865784 -0.29599l-1.190033 -0.49780273l-1.5885315 -1.189331l-8.440643 -8.137024l-5.36322 -5.5592346l-4.566284 -4.762726l-6.8521423 -7.937912l-4.6658936 -6.3503113l-2.8808594 -5.658783l-0.8938904 -2.6773682l-1.190033 -4.0684967l-0.99349976 -1.5875854l-0.89385986 0.49510193l-0.59503174 0.5946808l-0.6946106 0.79377747l-1.2923584 2.3813782l-0.39578247 1.1920319l-0.6946411 2.9760437l-2.3827515 -3.0756073l-1.1927185 -1.5875854l-3.3762817 -5.45697l-1.4888916 -2.9787292l-1.8873596 -3.6702576l-3.871643 -5.459671l-4.4693604 -4.068512l-5.9555664 -3.2747192l-3.9739685 -1.4880219l-8.241394 -3.2747192l-9.730286 -4.3671875l-2.2831726 -1.5875854l-2.1835022 -1.8862457l3.473175 -6.944992l1.4915771 -2.879181l2.283142 -3.7698212l0.49539185 -0.39823914zm-56.49707 -38.204178l0.99349976 0.5946655l0.49539185 0.6942291l1.4888916 4.3672028l0.7942505 2.9760284l1.9869995 7.343231l-2.78125 3.57341l-1.6881409 2.381363l-2.9777832 5.16098l-2.1862183 5.6560974l-1.588501 5.954773l-0.89385986 6.5494385l-0.19656372 6.848114l0.49542236 7.2436676l1.1927185 7.738785l0.89385986 3.971634l2.1835327 8.433014l6.3540344 19.252777l3.3762512 8.236572l2.78125 6.250763l0.7942505 1.9858246l-0.99349976 0.39823914l-3.3762512 0.4951172l-3.7720337 0.39553833l-2.4823914 0.69692993l-1.0931091 0.19642639l-1.0931091 -0.8933563l-0.29614258 -1.3884583l-0.29885864 -1.2888947l-1.6881409 -3.0782928l-0.99346924 -1.2888947l-1.0904236 -1.1920319l-1.2923584 -0.7937927l-0.5950012 0l-0.59503174 0.99290466l-0.39846802 3.4738464l-0.099609375 2.6800537l0 2.9760284l-0.39578247 2.182251l-0.5977173 0.5973511l-0.39578247 0l-0.89385986 0.09957886l-2.1835327 0.99020386l-2.086609 1.6871643l-1.6881409 2.1849365l-0.49539185 1.189331l-0.4980774 1.4880066l-0.6946411 4.367218l-0.099609375 2.1849365l0 5.257843l2.8808289 -4.267639l1.2896729 -1.9831238l2.7812195 -2.779602l2.6816406 -1.4880371l2.778534 -0.29867554l1.4915771 0.3982544l2.382782 0.89334106l1.588501 0l0.39578247 -0.6942444l0 -0.5973511l0.099609375 -0.69421387l1.2923584 -1.9831543l0.8911743 -0.89334106l0.89385986 -0.89334106l2.086609 -0.9929199l2.283142 -0.49780273l2.283142 0.1991272l2.382782 0.7937927l2.086609 1.1920166l1.8873596 1.7867126l1.4888916 2.182251l0.49539185 1.1920166l0.4980774 1.6871643l-0.4980774 1.4880066l-1.3892822 0.4951172l-2.1835327 0.69421387l-1.7877197 0.1991272l-2.5820007 0.29867554l-8.341034 2.3813782l-9.531067 3.6702576l-7.8456116 3.772522l-2.1835327 1.5875854l-0.59768677 0.4951172l-1.1900635 0.39822388l-0.39846802 -0.09954834l-0.39578247 -0.9929199l-1.4888916 -7.044525l-2.7812195 -16.077637l-1.192749 -10.122833l-0.5950012 -6.0516357l0 -10.023285l0.5950012 -5.954773l0.5977173 -5.257843l1.9842834 -10.023285l3.475891 -10.717514l5.559784 -13.198441l3.8743286 -8.336136l2.1835327 -4.665863l3.475891 -8.930817l2.4823608 -8.236588l1.4888916 -7.639221l0.29885864 -3.4738312l0.2961731 -4.5663147l-0.19924927 -3.075592l-0.49539185 -0.7937927l-0.49539185 -0.2986908l-0.5977173 -0.19642639l-0.49539185 -0.7937927l0.099609375 -0.29867554l0.59503174 -0.6942291zm145.46436 147.16599l3.5755005 0.29867554l0.39578247 0.4951172l-0.49539185 1.7866821l-3.5755005 6.5494385l-1.6881409 2.184967l-0.89385986 0.8906555l-2.5793152 1.0924683l-1.4915771 0.09954834l-2.9777832 0l0 -5.3601074l0.099609375 -4.5635986l0.39578247 -2.182251l0.5977173 -0.49780273l3.7720337 -0.5946655l4.865143 -0.1991272zm-137.22296 -2.9760437l0.2961731 0.1991272l0.099609375 2.2817993l-0.1965332 1.6871338l-0.099609375 2.3813782l0.1965332 5.061432l0.99349976 5.45697l1.4888916 5.0614014l0.99346924 2.3813782l1.6881409 3.8693848l0.29885864 1.2915955l0 0l-2.68161 -0.1991272l-14.894318 -2.4809265l-2.68161 -0.69421387l-0.6946411 -2.0853882l-2.283142 -10.518402l-0.29885864 -2.8764648l0.09963989 -0.8933716l0.7942505 -1.6871338l2.283142 -2.5804749l4.964752 -2.9760437l6.2571106 -2.1849365l3.3762512 -0.4951172zm45.673676 -53.88623l1.2923584 0.29867554l4.3670654 0.8933563l9.035645 1.8835602l9.234894 1.7866974l4.865143 0.49780273l2.8808594 0.0995636l4.0708923 0.4951172l2.68161 1.1920166l1.8846741 2.182251l0.8938904 1.5875854l1.1927185 2.182251l3.3762512 4.3671875l4.466675 4.267639l5.46286 4.1680603l3.0773926 1.983139l6.9517517 4.466751l8.6371765 6.7485657l3.7720337 3.6702576l0.8938904 1.2915955l0.39846802 0.7937927l0.29885864 1.2888794l-0.4981079 2.184967l-1.3892822 2.7769165l-1.3892517 2.4809265l-0.99349976 4.1680603l0.099609375 2.5805054l0.19656372 4.6631775l-4.0708923 2.1849365l-5.2609253 2.2817993l-8.341034 3.075592l-7.8456116 2.7796326l-3.572815 1.3884583l-3.8743286 1.2915955l-16.778961 3.4711304l-9.533752 1.5875854l-6.1548157 0.7937927l-13.4053955 0.89334106l-7.546753 0.09957886l-15.29007 0l-1.4888916 -2.7769165l-2.086609 -3.5734253l-3.475891 -5.2605286l-2.4823608 -3.6702576l-1.2896729 -3.4738464l-0.099609375 -2.8764954l0.099609375 -1.9858093l0.19924927 -6.0543213l2.8781738 0l1.2923279 -0.09957886l2.9777832 -1.8835754l3.6751099 -3.8720703l4.665924 -6.3503113l2.8781433 -4.3671875l2.5820007 -4.068512l4.369751 -7.639221l3.6724243 -8.435699l3.7747192 -10.61795l2.0839233 -6.947693l0.29885864 -0.49510193l1.3892517 -0.39823914zm-165.42303 70.359406l6.7525177 0.09954834l6.1548004 0.5946655l2.3854523 0.6942444l3.7720337 1.1920166l7.447159 3.5707092l6.852127 4.765442l6.1548004 5.7556458l2.68161 3.1751404l2.9777832 3.8694153l2.9804688 4.5663147l0.6946411 1.8835449l0 0.29870605l-3.4758759 0.29867554l-11.022629 0.29599l-6.055191 0.09954834l-12.710754 0.5946655l-12.212677 1.1920471l-10.82341 1.3884583l-4.3697357 0.7937927l-5.855957 1.3911438l-16.18663 4.8623047l-5.064392 1.8835449l-0.7942505 0.29870605l-0.7942505 -0.6942444l0.9934845 -4.3671875l2.6816254 -6.848114l1.6881256 -4.068512l3.0773926 -6.44989l3.0774078 -5.16098l3.5754852 -4.264923l2.083908 -2.0853882l1.8873749 -1.6871338l3.3762512 -2.5805054l3.4758759 -2.082672l3.8716583 -1.4880371l2.1835175 -0.5973511l2.3854523 -0.5946655l6.1548004 -0.5946655zm40.016983 -1.6871643l2.283142 0.6942444l5.8586273 2.879181l4.665909 2.6773376l3.2766418 2.0853882l7.6463776 6.1512146l8.042175 7.8410034l7.842926 8.831268l3.4758606 4.5663147l3.6751099 4.961853l8.836426 14.089111l3.971283 6.848114l4.4693604 8.037445l7.7433167 12.504211l6.852112 9.030365l6.652893 6.3530273l3.475891 2.3813782l1.3892517 0.89334106l1.6881409 1.3884583l0.099609375 0.39553833l-0.5950012 0.09957886l-3.0801086 -0.6942444l-6.553253 -2.4809265l-3.572815 -2.082672l-2.086609 -1.5875854l-6.055176 -5.459656l-2.8808594 -3.0756226l-2.1835327 -2.2817993l-3.4758606 -4.267639l-5.064392 -8.336121l-5.263611 -10.418854l-4.0708923 -7.6419067l-8.042175 -14.586884l-2.778534 -4.4667664l-2.78125 -3.968933l-7.148285 -8.634827l-8.14447 -8.336151l-8.04216 -6.944977l-3.5727997 -2.5805054l-5.1640015 -3.4738464l-1.5885162 -1.2888794l0.19924927 -0.09957886zm67.5197 -193.50986l-5.36322 0.0995636l-2.8781738 0.7937927l-1.4915771 0.5946655l-3.0773926 2.6800537l-1.5885315 1.9831314l-3.0773926 4.3671875l-3.177002 -1.3884583l-1.6881409 -0.59736633l-4.369751 -0.5946655l-5.0643616 0.09955597l-4.865158 0.69423676l-2.083908 0.5946655l-2.1862183 0.8933487l-4.170517 2.58049l-3.871643 3.4738464l-2.8781738 3.8693848l-0.8938751 1.9858246l-1.6881256 4.068512l-3.7747192 -0.49780273l-2.1835327 -0.29599l-2.482376 0.8933563l-1.3892822 1.4880066l-0.8938751 1.2889099l-1.6881256 4.3671875l-1.588501 6.153885l-1.1927338 7.343231l-0.49539185 4.068512l-0.29885864 3.7698364l0.29885864 2.085373l0.89385986 0.29599l0.6946411 0l9.82991 -1.0897827l12.312302 -2.1849365l0.69462585 -0.0995636l0.4954071 0.2986908l-1.7850647 2.381363l-3.9739532 3.9689484l-2.7785492 2.9787292l-4.568985 5.6560974l-3.3762512 5.8552094l-2.3827667 6.250763l-0.8938751 3.2747192l-0.6946411 2.9787292l0.099624634 2.0826874l0.7942505 0.8933563l0.5950165 0.49510193l0.69732666 0.49780273l0.79426575 1.3884583l0.1965332 4.762741l-0.69462585 8.535263l-0.2961731 4.961853l-0.19923401 10.1228485l0.2961731 10.219711l0.89385986 10.222397l1.2923584 9.923721l1.8873596 9.525482l2.1835327 8.930817l2.68161 8.336121l1.4888916 3.772522l1.0931091 2.3813782l1.6854401 3.075592l1.4915771 1.0924683l1.6881256 -0.7937622l0.8938751 -0.9929199l0.8911896 -0.89334106l1.3919525 -0.7937927l1.1900482 0.39822388l1.1927185 1.6844482l0.5950165 1.3911438l0.99349976 2.6800537l0.49539185 2.6773682l-0.1965332 0.9929199l-0.29885864 0.09954834l-2.1835327 -0.5946655l-6.2571106 -1.7867126l-11.219177 -3.2747192l-16.28357 -4.466736l-11.321487 -2.182251l-9.135284 -0.4951172l-4.765518 0.29599l-5.6594086 0.49780273l-7.746002 1.5875854l-4.865143 1.5875854l-4.566284 1.9831238l-4.2701263 2.3813782l-6.1548004 4.466736l-3.7747345 3.6729736l-2.3827667 2.4809265l-4.2701263 5.257843l-3.4758759 5.3601074l-2.6789246 5.5565186l-0.9934845 2.6800537l-1.6881256 5.556549l-1.9869843 9.229462l-0.4954071 4.267639l0.099624634 0.7937927l0.49539185 0.29599l3.0774078 0.49780273l8.241394 0.09686279l15.492004 -0.99020386l16.679352 -1.9858398l7.3502197 -1.2888794l7.444458 -1.2915955l14.498505 -1.7867126l13.305786 -0.89334106l11.518036 0.1991272l4.7655334 0.49780273l2.083908 0.39553833l3.1797028 1.2915955l3.1770172 3.6702576l4.665909 7.5423584l3.4758759 5.954773l7.247925 12.504211l7.2478943 10.717499l4.369751 5.1582947l2.4823914 2.5805054l2.4823608 2.3813477l5.2636414 4.3671875l5.6593933 3.9689636l6.055176 3.5733948l6.35672 3.075592l6.849457 2.7796326l7.051361 2.182251l7.546753 1.886261l3.8716736 0.69421387l5.2609253 0.7937927l11.518036 0.29867554l11.321472 -1.0924683l7.347534 -1.5875854l4.0708923 -1.4880066l1.6881409 -0.7937927l2.283142 -0.9929199l1.3892517 -0.29867554l0.99349976 -0.29599l4.1705017 -2.3840637l8.639893 -6.5494385l5.9555664 -5.45697l4.270111 -4.068512l8.936035 -9.923706l9.733002 -12.504211l11.219177 -15.679382l6.3540344 -9.425903l5.759033 -8.7344055l9.035645 -14.487335l6.453644 -11.909546l4.369751 -10.023254l1.4888916 -4.563629l1.588501 -5.45697l2.382782 -11.115753l0.29885864 -2.779602l0 -0.4951172l-0.6946411 -0.1991272l-2.1835327 1.2915955l-2.4823914 2.2817993l-1.4915771 1.4880371l-2.778534 1.9858093l-0.7942505 0.19644165l-0.7942505 -0.09686279l-0.5977173 -0.9929199l0.39846802 -1.6871338l1.2896423 -2.0853882l0.99349976 -1.0897827l1.1927185 -1.0924683l1.3892822 -2.3813782l0.19924927 -0.89334106l-0.09963989 -0.89334106l-1.2896423 -3.2747192l-3.8743591 -7.243683l-7.4471436 -12.404648l-8.141785 -12.105972l-3.6723938 -4.6658783l-3.475891 -4.267624l-7.2478943 -8.236588l-7.5467834 -7.639221l-7.8456116 -7.343231l-8.141785 -6.7485504l-8.341003 -6.2534485l-8.637207 -5.6560974l-8.739471 -5.16098l-4.3670654 -2.2818146l-4.2701416 -2.2817993l-3.9712524 -2.58049l-1.192749 -1.1893463l-0.19921875 -0.49780273l-0.59503174 -2.182251l-1.0931091 -3.4738312l-1.3892517 -3.7698364l-6.1548157 0l-3.2766418 -0.0995636l-6.9517517 -1.0924683l-7.546753 -2.0826874l-8.042175 -3.0782928l-4.270111 -1.8835602l-9.531067 -4.5663147l-2.0865784 1.886261l-0.99349976 0.7937927l-1.3892822 0.5946655l-1.190033 -0.6942291l-0.99349976 -2.0826874l-0.39846802 -1.687149l-0.49539185 -1.6871338l-1.588501 -3.5733948l-0.8938904 -1.2889099l-0.89385986 -1.3911438l-0.29885864 -1.0897827l0.29885864 -0.59736633l0.29885864 -0.19642639l4.367035 -2.58049l5.958252 -4.168068l0.794281 -0.8933487l0.099609375 -0.8933487l-1.2896729 -3.772522l-2.385437 -4.762741l-2.7785645 -4.464058l-1.2923279 -1.5875854l-2.0839233 -2.1849365l-4.5689697 -3.0755997l-5.0617065 -1.3884659z" fill-rule="evenodd"/><path fill="#000000" d="m337.832 58.013042l0 1.7867012l-1.3919373 0.8933487l-1.5885315 -0.9929085l-1.2896423 2.1822472l2.1835327 1.3911514l0.6946411 0.39554977l0.69732666 -0.39554977l2.8781433 -1.886261l-2.1835327 -3.374279zm10.424927 6.4498787l-0.49539185 0.39823914l-1.1927185 0.9902191l-1.190033 -1.0897751l-1.6881409 1.7866974l1.8846741 1.9831314l0.7942505 0.7937927l0.8938904 -0.6942291l2.5820007 -2.182251l-1.5885315 -1.9858246zm-13.801178 3.8693924l-1.6881104 0.09955597l-0.7942505 0.1991272l-0.6946411 0.19911957l-0.5977173 0.29599l-0.39578247 0.6969147l-0.099609375 0.29599l-0.39846802 0.19911957l-0.39578247 0.0995636l-0.09963989 0l-5.263611 0.49510956l-0.09692383 0.39823914l-0.4981079 0.59467316l-0.89385986 0.49510956l-0.39578247 0.09955597l-0.39846802 0l-0.099609375 -0.39554596l-0.39578247 -0.29868317l-0.4981079 -0.19911957l-0.39578247 0.19911957l-0.6946411 0.49780273l-0.39846802 0.7937851l-0.29614258 0.8933563l0.09692383 1.0897751l0.19921875 0.49780273l0.7942505 0.7937927l0.5977173 0.29599l1.4888916 0.29867554l2.9777832 0l1.3892822 -0.29867554l0.29885864 -0.0995636l0.5950012 -1.1893387l10.527252 0.19911957l0.1965332 -0.19911957l0.7942505 -0.9929123l0.39846802 -1.0924683l0.39578247 -0.09687042l0.7942505 -0.19911957l1.192749 -0.0995636l0.6946411 0l0.39846802 0.0995636l0.49539185 -0.0995636l0.29885864 -0.39823914l0.099609375 -0.29599l0 -0.6942291l-0.099609375 -0.5973587l-0.19924927 -0.6942291l-0.39846802 -0.59467316l-0.29614258 -0.19911957l-0.29885864 -0.19911957l-0.49542236 -0.09955597l-0.39846802 0.09955597l0.099609375 0l-1.4888611 0.29868317l-1.4888916 -0.0995636l-3.7747498 0l-0.1965332 -0.49510956l-0.39846802 -0.29867554l-0.09963989 0l0.29885864 -0.29868317zm64.93771 30.564949l-0.29882812 0.0995636l-0.09963989 0.09955597l-1.3892517 0.0995636l-1.2896729 0.59467316l-0.6946411 0.39823914l-0.4980774 0.49510956l-0.39578247 0.6942291l0 0.7937851l0.39578247 1.0924759l1.6881104 1.5875778l1.0931091 0.29868317l3.077423 1.0897751l0.49539185 0.5973587l1.3919678 1.3884659l0.7942505 0.6942291l0.7942505 0.29867554l0.49539185 0.0995636l0.4981079 -0.19911957l0.39578247 -0.49510956l-0.09963989 -0.5973587l-0.1965332 -2.2818146l-1.1927185 -3.0755997l-0.6946411 -0.9929123l-1.588501 -1.3884583l-0.8938904 -0.5973587l0 -0.0995636l-0.099609375 0l-0.7942505 -0.5946655l-0.8938904 0l0 -0.0995636zm-72.882935 6.1538925l-0.09692383 0.59467316l-0.19924927 1.985817l2.1835327 0.19911957l1.4888916 2.3813705l2.086609 -1.3911514l-1.7877502 -2.87648l-0.39846802 -0.5946655l-0.59503174 0l-2.68161 -0.29868317zm5.5624695 -3.6729584l-0.19924927 0.49780273l-1.1927185 2.58049l1.986969 0.8933487l0 0.09687042l-0.099609375 0.09955597l-0.099609375 0.0995636l0 0.09955597l0 0.0995636l0 0.09955597l0 0.0995636l0.099609375 0.09955597l0.099609375 0.09687042l0 0.0995636l0.19924927 0.19911957l0.39578247 0.29867554l-0.099609375 -0.19911957l0.29885864 0.29868317l0.39846802 0.09687042l0.29614258 0l1.5885315 0.7964783l0.59768677 0.29599l0.096954346 0.0995636l0.89385986 0l1.1927185 0.7937851l0.29885864 0.6942291l-0.099609375 -0.19911957l0.099609375 0.39824677l0.2961731 0.29867554l0.19921875 0.19643402l0.19924927 0.09955597l0.49539185 0.0995636l1.7877502 0l0.49539185 -0.0995636l0.29885864 -2.281807l-1.8873596 -2.3813705l-1.6881409 -1.2915955l-0.49539185 0l-0.7942505 -0.09686279l-0.39846802 -0.1991272l-0.2961731 -0.09955597l0 -1.886261l-1.0931091 1.4880219l0 0.09955597l-0.19921875 0.0995636l-0.09963989 0.09955597l-0.29614258 0.29868317l-0.29885864 0.29599l-0.49539185 0.5973587l-0.39849854 0.29599l-0.19921875 -0.09955597l-0.09692383 0l-0.29885864 -0.19643402l-0.39846802 0l1.1927185 -2.8791656l-2.283142 -0.9929123zm-0.7942505 11.115753l0 0.7937851l0 2.58049l3.871643 0.29599l-1.0931091 -2.976036l-2.778534 -0.6942291zm-106.94168 11.013496l0 1.2915878l-1.190033 1.0924759l0.099624634 0.19642639l0.8938751 -0.8933487l1.0904083 -0.7937927l-0.8938751 -0.8933487zm78.94083 -71.74516l9.531067 0.1964302l18.76593 1.985817l18.569427 3.7698326l18.07129 5.3601l8.936035 3.4738388l4.5663147 1.8835678l9.035645 4.1680756l8.839111 4.566307l8.6371765 5.0614243l8.341034 5.45697l8.042145 5.7556458l7.746002 6.250763l7.4471436 6.5494385l3.6724243 3.4738388l-22.241821 22.228813l-0.8911743 0.1991272l-0.89385986 -0.1991272l-0.09963989 0l0 -0.0995636l0.19924927 -0.19642639l0.49539185 -0.5973511l0.19924927 -0.0995636l0.29614258 -0.19642639l0 -2.2845001l-1.6881104 -1.6844559l-0.2961731 0l-0.4980774 0.09687042l-1.2896729 0.09955597l-0.6946411 0l-0.4980774 -0.09955597l-0.2961731 0l-0.19921875 -0.6942291l-0.19924927 -1.0897827l-0.2961731 -1.0924683l0 -0.39823914l-0.29882812 -3.968956l-1.4888916 -0.6942291l-0.29885864 -1.4880142l-2.283142 0.19911957l0 -2.2845001l-1.5885315 -0.59467316l-0.99346924 -0.49510956l-0.19924927 -2.7796097l-4.964752 -0.19911957l-1.2896729 -1.8835678l-1.8873596 -2.8791733l-5.3605347 -0.3955536l-1.2923584 -1.2915878l-2.283142 -0.39554596l-1.8873596 -0.8933563l-0.7942505 1.2889023l-4.170532 0.19911957l-0.29614258 1.3884583l-0.99349976 0.29868317l-1.6881104 0.09955597l-1.9869995 0.0995636l-2.0838928 0l-6.157501 -2.9787292l-6.254425 -2.6800537l0.099609375 -0.09687042l-0.59768677 -0.29867554l-7.247925 -2.7796097l-14.794678 -4.4640656l-15.09082 -3.0782852l-15.392395 -1.6871414l-7.7433167 -0.19643402l0 -9.229485l6.949066 0.6942291l1.2923279 2.182251l4.9647827 0.39823914l3.177002 3.1751556l0.09963989 0.0995636l1.0903931 0.29868317l0.794281 0l0.7942505 -0.0995636l0.5977173 -0.49780273l0.29614258 -0.6942291l-0.1965332 -0.7937851l-0.39846802 -0.59467316l-0.59503174 -0.6942291l0 0.09955597l-2.5820007 -2.680046l0 -2.3813705l-0.99349976 -0.8933487l-0.89385986 -3.1751633l-2.5820007 -0.8933487l0 -0.49780273l-0.89385986 0.39823914l-2.8781738 1.0924759l-2.8808594 1.8835678l-3.2766418 0.49780273l-1.8846741 2.0826874l0 -26.692871zm-6.35672 0l0 36.915268l-4.665924 0.0995636l-9.234894 0.6942291l-9.135254 1.1893387l-9.035675 1.6871414l-8.93602 2.1849442l-8.836426 2.58049l-8.639877 3.1751556l-8.537552 3.6702728l-4.170517 1.985817l-0.19923401 0.0995636l-0.19923401 0l-0.19923401 0.09955597l-0.4954071 0.29599l-5.6593933 2.9787369l-11.022644 6.6489944l-10.424927 7.343231l-9.929535 8.137016l-4.665909 4.4640656l-26.213089 -26.197762l5.759018 -5.45697l12.113052 -10.122841l12.8076935 -9.129929l13.604645 -8.137024l6.949051 -3.5734024l5.263611 -2.58049l10.524551 -4.563614l10.82341 -3.9689522l11.022629 -3.3742828l11.2191925 -2.68005l11.318787 -2.0826874l11.4184265 -1.4907112l11.518036 -0.7937927l5.8586426 -0.09686661zm45.08136 71.050934l-0.29885864 0.19911957l-0.29885864 0.29868317l-0.099609375 0.39554596l0.099609375 0.39823914l0.19921875 0.3955536l0.19924927 0.19911957l0.19924927 0.19911957l0.39578247 0.29599l0.29885864 0.6969223l0.19921875 0.8933487l0.2961731 1.2889023l0.19921875 0.6942291l1.0931091 1.0924683l0.794281 0.1991272l1.190033 0.29597473l0.4980774 0.2986908l0.2961731 0.29599l0.099609375 0.39823914l0.29885864 0.5946655l0.49539185 0.39823914l0.4981079 0.1991272l0.49539185 0.19642639l0.89385986 0.0995636l0.29885864 0.09954834l1.588501 0.7937927l6.0552063 5.16098l0 -3.075592l0 -0.2986908l-0.2961731 -0.79377747l-0.19924927 -0.39823914l-0.29882812 -0.3955536l-0.49542236 -0.29867554l-0.5950012 -0.0995636l-0.5977173 -0.19642639l-0.89385986 -0.49780273l-0.2961731 -0.1991272l-0.19924927 -0.29599l0 -0.0995636l0.09963989 -0.49778748l-0.19924927 -0.4951172l-0.19924927 -0.29867554l-0.29614258 -0.19642639l-0.6946411 -0.2986908l-0.79693604 -0.29867554l-1.2896729 -0.3955536l-0.49539185 -0.0995636l-0.4981079 -0.39823914l-0.99346924 -1.0897675l-0.2961731 -0.2986908l-0.19924927 -0.19911957l0.19924927 -0.09686279l0.19924927 0l0.29614258 -0.49780273l0 -0.49510956l-0.099609375 -0.7937927l-0.099609375 -0.29867554l-0.09692383 -0.4951172l-0.5977173 0.0995636l-1.3892822 0.19642639l-1.3892517 0l-0.09963989 -0.29599l0 -0.29867554l0 -0.6942291l0 -0.19911957l0.09963989 -0.49510956l-0.5977173 -0.19911957l-0.9908142 -0.1991272l-1.0931091 -0.09955597zm-198.48827 -57.556503l-1.4915924 0.5946655l-8.04216 3.0782928l-12.013435 5.1582947l-7.945244 3.872078l-7.5440674 4.364502l-7.2506027 5.16098l-6.652893 6.054329l-5.9555664 7.044548l-2.6816177 4.068512l-1.4888916 2.3813705l-2.482376 5.0614166l-2.9804764 7.7414703l-3.1770172 10.518387l-3.3762589 10.421524l-2.183525 4.8623047l0.9934921 0.7937927l9.035652 -7.9405975l13.900803 -11.31218l8.637184 -8.435699l3.9739609 -4.762741l8.736801 -12.105965l13.50502 -18.359428l7.3475266 -8.535255l5.4601746 -5.45697l2.7812347 -2.58049l0.099609375 -0.0995636l0.79426575 -1.5875778zm314.5625 0.39823914l-0.39846802 0.19642639l-1.2896729 0.6969223l1.2896729 0.49510956l2.8808289 2.4809341l5.360565 5.45697l7.347534 8.634819l13.4053955 18.259865l8.836426 12.006409l1.8873596 2.4809265l4.0708923 4.5663147l6.553253 6.2507553l13.900818 11.31218l9.035645 7.9405975l0.89385986 -0.7937927l-2.1835327 -4.8623047l-3.3762207 -10.421524l-3.0773926 -10.518387l-2.9804688 -7.7414703l-2.4824219 -5.0614166l-1.4888916 -2.3813705l-2.6815796 -4.068512l-5.955597 -7.044548l-6.652893 -5.954773l-7.1509705 -5.16098l-7.5440674 -4.464058l-7.9452515 -3.872078l-12.013428 -5.058731l-7.9452515 -3.0782928l-0.29614258 -0.29599zm-66.03082 90.40326l0 0.0995636l-0.09963989 0l0.09963989 -0.0995636zm-2.4823914 5.260544l-0.099609375 0.09687805l0 -0.09687805zm11.913818 4.762741l-0.6946411 0.0995636l-1.8846741 0.19642639l0.39578247 3.1778564l2.4823914 -0.2986908l-0.29885864 -3.1751556zm8.241394 8.336151l-0.09692383 0.09954834l-0.39846802 0.09687805l-0.19924927 0.19911194l-0.1965332 0.39823914l0 0.4951172l0.1965332 0.89334106l0.39846802 0.4951172l0.19924927 0.29867554l-0.099609375 0.39823914l-0.19924927 0.4951172l0.099609375 0.99290466l0.59503174 0.7937927l0.7942505 0.4951172l0.4981079 0.09954834l1.0903931 0.1991272l0.99349976 0.49510193l0 0.0995636l1.0931091 0.6942291l0.7942505 0.9929199l0.2961731 0.39823914l2.9804688 -0.8933563l0 -0.39823914l0.099609375 -0.29599l-0.099609375 -0.8933563l0 -0.39823914l-0.29885864 -0.49510193l-0.29885864 -0.1991272l-0.39578247 -0.09954834l-0.29882812 0.09954834l-0.2961731 0.1991272l-0.099609375 -0.0995636l-0.19924927 -0.29867554l-0.29885864 -0.29599l-0.39578247 -0.39823914l-0.4980774 -0.2986908l-0.7942505 0l-0.096954346 -0.09686279l-0.19921875 -0.1991272l-0.39846802 -0.5946655l-0.6946411 -0.89334106l-0.39578247 -0.59736633l-0.29885864 -0.4951172l-0.39846802 -0.39823914l-0.6946411 -0.49510193l-0.7942505 -0.4951172l-0.7942505 -0.09954834zm6.5532837 9.525467l-3.6724243 0.2986908l0.59503174 0.89334106l0.6946106 0.7937927l0.5977173 0.4951172l0.49539185 0.49778748l0 0.29599l0 0.49780273l0 0.6942291l0.09963989 0.3955536l0.39578247 0.39823914l0.39846802 0.1991272l0.49539185 0.09686279l0.99349976 0.0995636l0.6946411 0.0995636l0.19921875 0l0.09963989 0.09954834l0.099609375 0.1991272l0.39578247 1.6871338l-0.19656372 1.687149l-0.099609375 0.89334106l0.2961731 0.8933563l0.29885864 0.3955536l0.89385986 0.6942291l0.49539185 0l0.5977173 0.0995636l0.09692383 0l0 0.19911194l0 0.0995636l0.099609375 0.29599l0.19924927 0.19911194l0.29885864 0.0995636l0.2961731 0l0.099609375 -0.0995636l0.29885864 -0.19911194l0.099609375 -0.19642639l0.19924927 -0.39823914l0.1965332 -0.4951172l0.4981079 -1.0924683l0.1965332 -0.3955536l0.19921875 -0.39823914l-0.29614258 -0.29867554l-1.0931091 -1.1893463l-0.6946411 -1.3884583l-0.5977173 -1.6871338l-0.49539185 -1.687149l0 0.09687805l-0.099609375 -0.5946808l-0.39578247 -0.19911194l-0.29885864 -0.19642639l-0.39578247 -0.1991272l-0.79693604 -0.29867554l-0.49542236 -0.19642639l-0.099609375 0l-0.19924927 -0.1991272l-0.29614258 -0.29867554l-0.19924927 -0.3955536l-0.49539185 -0.6969147l-0.099609375 -0.19644165l-0.19924927 -0.39823914zm0.19921875 15.679382l1.3919678 1.2915802l1.2896729 1.2889099l-1.192749 -2.58049zm-331.14493 -105.08973l-0.49539948 0.09955597l-4.0708923 1.2889023l-7.646385 3.5734024l-7.048668 4.9618607l-6.553276 5.852516l-3.0800934 3.3742828l-3.0774002 3.6729584l-4.765526 7.9378967l-3.376255 8.535263l-2.0866013 9.030365l-1.1900368 9.329056l-0.29885483 9.525482l0.59770966 14.390472l0.7942543 9.425919l0.39578247 5.459656l-0.29885483 10.91394l-0.5950165 5.459671l1.1927261 0.39553833l2.083908 -4.0684967l5.0643845 -7.641922l5.858635 -7.0445404l6.652893 -6.250763l3.5727959 -2.8791656l8.341026 -6.3503265l12.312286 -10.817078l7.546768 -7.7414703l6.652893 -8.336136l5.4628525 -8.831253l3.1770172 -7.0445404l1.5885086 -4.9618683l1.0904236 -5.0614166l0.59770966 -5.16098l0.099617004 -2.6800537l-1.1927261 -0.19642639l-1.4888916 3.6702652l-3.9712753 6.4498825l-4.96476 5.7556458l-5.659401 5.16098l-3.0800934 2.3813782l-6.354042 4.762741l-9.730286 6.848114l-6.1574936 4.8623047l-2.7785492 2.58049l-2.4823837 2.2818146l-4.3697433 5.0614166l-3.8716545 5.360092l-3.376255 5.755661l-1.4888916 3.075592l3.177021 -9.6250305l3.2766342 -9.727295l2.183529 -8.236588l3.3762512 -17.067825l2.083908 -8.23658l1.1927338 -4.068512l3.1770172 -7.7414703l4.3697433 -7.044548l4.369751 -4.8623047l3.373558 -2.8791733l1.8873672 -1.3884583l0.39847565 -0.19911957l-0.39847565 -1.0897751zm430.04175 0l-0.39575195 0.19642639l-1.2923584 0.8933487l1.3919678 0.29868317l0.09692383 0.09955597l0.099609375 0l1.8873901 1.3884659l3.2766113 2.8791656l4.2701416 4.762741l4.2700806 7.044548l3.177063 7.6419144l1.1900024 3.9689484l2.086609 8.3361435l3.3762817 17.067825l2.1835327 8.236588l3.2766113 9.727295l3.177002 9.6250305l-1.4888916 -2.9760437l-3.3762207 -5.7556458l-3.9713135 -5.459656l-4.4693604 -5.0614166l-2.3827515 -2.2818146l-2.8781738 -2.58049l-6.1574707 -4.8623047l-9.630676 -6.848114l-6.3540344 -4.762741l-3.0801086 -2.3813782l-5.6593933 -5.16098l-4.964752 -5.7556458l-3.971283 -6.5494385l-1.4888916 -3.6702728l-1.1927185 0.19642639l0.099609375 2.6800537l0.5977173 5.260544l1.0904236 5.0614166l1.588501 4.8623047l3.0800781 7.144104l5.559784 8.831253l6.652893 8.336136l7.546753 7.7414703l12.2127075 10.717514l8.440613 6.44989l3.572815 2.8791656l6.652893 6.250763l5.8586426 7.0445404l4.9647827 7.641922l2.1835327 4.0684967l1.192688 -0.39553833l-0.6946411 -5.459671l-0.19921875 -10.91394l0.29882812 -5.459656l0.8939209 -9.425919l0.49536133 -14.390472l-0.29882812 -9.525482l-1.0904541 -9.329056l-2.1862183 -9.030365l-3.2766113 -8.535263l-4.8651733 -7.9378967l-3.0773926 -3.6729584l-2.9804688 -3.2747192l-6.4536133 -5.7556534l-6.8494873 -4.862297l-7.4471436 -3.5707169l-3.973938 -1.1920242l-0.1965332 -0.19911957l-0.099609375 -0.0995636l-0.29888916 -0.19642639zm-91.94507 102.90748l-0.5950012 0.0995636l0 0.49510193l-0.09963989 0.0995636l-0.099609375 0.29867554l0 0.19642639l0.099609375 0.49780273l0 0.4951172l0.09963989 0.49780273l0 0.39553833l0 0.0995636l-0.4981079 0.3955536l-0.39578247 0.49780273l-0.39846802 0.5946655l-0.39578247 0.49780273l-0.19921875 0.29599l-0.09963989 0.29867554l0 0.3955536l0.09963989 0.19911194l0.099609375 0.1991272l0.1965332 0.19911194l0.29885864 0.29599l0.19924927 0.2986908l0.19921875 0.19911194l0.19656372 0.0995636l0 0.09686279l0.099609375 0l0 0.0995636l3.3762512 3.3742828l3.2766418 3.5733948l0.099609375 -0.6942291l0.19924927 -1.2915802l0 -0.8933563l-0.19924927 -0.7937927l-0.19921875 -0.39553833l-0.2961731 -0.2986908l-0.39846802 -0.29599l-0.49539185 0l-0.29885864 -0.0995636l-0.09963989 -0.09954834l0 -0.39823914l0 -0.4951172l-0.099609375 -0.5946655l-0.1965332 -0.59736633l-0.4981079 -0.49510193l-0.099609375 -0.0995636l-0.1965332 -0.39823914l-0.09963989 -0.4951172l0 -0.6942291l0 -0.6942291l0 -0.6942291l0 -0.5973511l-0.19921875 -0.5946808l-0.29885864 -0.5946655l-0.19656372 -0.7937927l-0.39846802 -0.7937927l-0.89385986 -0.5973511l-0.29885864 -0.19642639l-0.2961731 -0.0995636zm-215.17029 46.938553l1.588501 0.3955536l0.6946411 0.39823914l0.19923401 0.19911194l2.8781586 -0.29867554l0.6973419 0.5946655l0.49539185 0.6942291l-0.39578247 2.7796173l-0.19923401 2.8791656l-0.19923401 0.3955536l-0.19923401 0.39823914l-0.099624634 0l0 0.0995636l-0.19654846 0.5946655l-0.19923401 0.6942291l-6.9517517 0l0 -0.0995636l-2.778534 -0.29867554l-0.5977173 -0.4951172l-0.29615784 -0.79377747l-0.29885864 -1.0924835l0 -1.0897675l0.099624634 -2.0853882l0.19923401 -0.6942291l1.190033 -1.5875854l2.3827667 -1.4880066l1.0931091 -0.0995636zm-56.00168 -130.09814l26.213089 26.098198l-4.5662994 4.9618683l-8.639862 10.418823l-7.646393 11.01619l-6.8494263 11.61087l-2.980484 6.0543213l-1.9842834 4.1680756l-3.4758759 8.33345l-2.9777832 8.535263l-2.5820007 8.634811l-2.0865936 8.831253l-1.5885162 8.831253l-1.190033 9.030365l-0.5977173 9.03038l-0.1965332 4.466751l-36.939575 0l0.19923401 -5.6560974l0.7942581 -11.314865l1.3919678 -11.212631l1.9842834 -11.212616l2.6816254 -11.01619l3.1770172 -10.817062l3.8716507 -10.61795l4.469368 -10.518402l2.382759 -5.0614166l3.6751175 -7.2436676l8.241394 -13.89267l9.331825 -13.198441l10.328003 -12.404655l5.559784 -5.8552094zm30.58284 30.564949l23.631088 23.61728l-3.5754852 3.8693848l-6.749832 8.236588l-5.958252 8.734375l-5.263611 9.226807l-2.2831573 4.7654266l-2.68161 6.0516357l-4.267441 12.504211l-2.9804688 12.802887l-1.6881256 13.098892l-0.19923401 6.5494385l-33.36139 0l0.29885864 -7.641922l1.6881256 -15.084702l3.0773926 -14.885574l4.466675 -14.387787l5.759018 -13.992218l7.051361 -13.298004l8.341019 -12.703339l9.531067 -11.906845l5.1640015 -5.556534zm265.11407 -30.664513l3.475891 3.6702728l6.553253 7.442787l6.1548157 7.7414703l5.8586426 8.03746l5.46286 8.336151l4.964752 8.535248l4.665924 8.831253l4.1705017 9.03038l1.8873596 4.5662994l3.3762512 8.930817l5.4601746 18.160294l3.7720337 18.555862l1.986969 18.854523l0.29885864 9.428619l-36.939575 0l-0.29614258 -7.5423584l-1.5885315 -15.184265l-2.9804688 -14.885574l-4.367035 -14.487335l-2.6816406 -7.1441193l-1.588501 -3.9689484l-1.7877502 -3.8720856l0.29885864 -0.6942291l0.2961731 -0.39553833l0.39846802 -0.39823914l0.5950012 0.09954834l0.59503174 0.0995636l0.4980774 -0.0995636l0.39578247 -0.39823914l0.29885864 -0.39553833l0.19924927 -0.8933563l-0.099609375 -1.0924683l-0.29885864 -1.983139l-0.19924927 -0.6942291l0 -0.19911194l-0.1965332 -0.1991272l-0.39846802 -0.19911194l-0.99349976 -0.8933563l-0.59503174 -0.5946655l-0.29885864 -0.3955536l-0.29614258 -0.39823914l0 -0.0995636l0 -0.7937927l-0.4981079 -0.6942291l-0.49539185 -0.5946655l-0.49539185 -0.59736633l-0.5977173 -0.5946655l-0.39578247 -0.49510193l-0.19924927 -0.1991272l0 -0.19911194l-0.099609375 0l0 -0.6942291l-0.49539185 -0.5946808l-0.39846802 -0.49780273l-0.59503174 -0.49510193l-0.4980774 -0.4951172l-0.2961731 -0.39823914l-0.19924927 -0.29867554l-0.099609375 0.0995636l0.099609375 -0.6942291l-0.19921875 -0.5946808l-0.2961731 -0.5946655l-0.29885864 -0.5973511l-0.6946411 -1.0897827l-0.19921875 -0.2986908l-3.1770325 -2.9760284l-0.49539185 -2.1849518l-2.68161 -0.19911194l-4.865143 -5.9520874l0.29614258 -2.085373l-1.588501 -0.1991272l0 -2.182251l-1.7877502 -1.0924683l-2.283142 -0.19642639l-4.466675 -4.8623047l-0.4980774 -2.6800385l-2.1835327 0l0.29885864 -2.7796173l24.325714 -24.411064zm-26.113464 160.46399l0 0.5946655l-0.099609375 0.6968994l0.19921875 -0.5973511l0.2961731 -0.39553833l-0.1965332 -0.1991272l-0.19924927 -0.09954834zm-7.4471436 0.89334106l-1.588501 0.09954834l-1.2923584 0.5946655l-0.59503174 0.3982544l-0.39846802 0.5946655l-0.29614258 0.5946655l0.29614258 0.7937927l0.5977173 0.6942444l1.4888916 0.5973511l2.5820007 0l0.2961731 0.09954834l0.29885864 0.09957886l0.49539185 0l0.4980774 -0.29867554l0.39578247 -0.49780273l0 -0.5946655l-0.09692383 -0.59469604l-0.29885864 -0.9928894l-0.39846802 -0.6942444l-1.190033 -0.7937927l-0.7942505 -0.09954834zm-374.04007 -143.19704l-0.6946373 1.1893463l-0.29885483 0l-0.29885483 0.0995636l-0.29616165 0.19911194l-0.19923782 0.1991272l-0.19923782 0l-0.099617004 0.09954834l-2.6789246 3.5707092l-5.0643845 7.243683l-4.469364 7.4427795l-3.8716545 7.641922l-3.1770191 8.03746l-2.4823818 8.336136l-1.7877464 8.634827l-0.89387226 9.030365l-0.09961891 4.6631775l0.19923687 5.7556458l1.4888906 11.01619l2.5820017 10.319275l3.1770172 9.824158l1.7877464 4.86499l3.575491 9.724609l4.6659107 14.686462l2.083908 10.222412l0.49809265 5.3573914l1.2896538 0.09957886l0.39847183 -2.879181l1.3892746 -5.357422l2.6816177 -7.9378967l4.8651466 -10.023285l5.759018 -9.528168l9.82991 -14.091782l9.82991 -13.992233l5.858635 -9.724609l2.5820007 -4.961853l1.8846741 -4.068512l3.1797104 -8.236588l2.4823837 -8.435699l1.7850494 -8.731689l0.49809265 -4.3671875l-1.1927261 -0.29599l-1.5885086 3.6702728l-4.466675 6.5494385l-2.7812347 2.7796173l-6.453659 6.1511993l-13.2061615 12.404648l-8.836418 10.023285l-5.0643845 7.144104l-4.0708923 7.5423584l-2.9804726 8.137009l-0.7942543 4.267639l-0.6946373 4.466751l-0.8938713 4.267624l2.0866013 -27.984467l0.19654465 -5.360092l-0.49539948 -10.717514l-1.9869843 -16.274033l-1.2896538 -10.717514l-0.39847183 -5.260544l-0.09692764 -10.319275l0.8938713 -7.4427795l1.0904198 -4.9618683l1.6881256 -4.762741l2.183529 -4.5663147l1.391964 -2.2817993l0.49539948 0.09954834l-0.19923782 -0.89334106l-0.29616165 -1.5875854zm519.90295 0.6942291l-0.5977173 0.4951172l-1.3892822 1.4907074l0 0l1.4888916 -0.29867554l1.3919678 2.2817993l2.283142 4.6631927l1.588501 4.7654266l1.192749 4.8623047l0.8911743 7.542343l-0.09692383 10.319275l-0.4981079 5.260544l-1.2896729 10.717499l-1.9869385 16.274048l-0.49542236 10.717514l0.29614258 5.2605286l2.086609 28.08403l-0.99346924 -4.3671875l-0.59503174 -4.3672028l0 -0.09954834l-0.89385986 -4.267639l-2.8808594 -8.137009l-4.070923 -7.5423584l-5.064331 -7.144104l-8.936035 -9.923721l-13.106567 -12.504211l-6.5532837 -6.051651l-2.7785645 -2.8791656l-4.4693604 -6.5494385l-1.588501 -3.6702728l-1.1927185 0.29599l0.59768677 4.3671875l1.7850952 8.731689l2.4823608 8.435699l3.0800781 8.336151l1.8847046 3.9689484l2.5819702 5.0614166l5.958252 9.625046l9.829956 14.091782l9.730286 13.992233l5.8586426 9.627731l4.8651123 9.923721l2.6816406 7.9378967l1.2896118 5.45697l0.4981079 2.7796326l1.1900635 -0.09957886l0.5977173 -5.3573914l2.0838623 -10.222412l4.569031 -14.686462l3.572754 -9.627731l1.7877808 -4.8623047l3.2766113 -9.923721l2.5820312 -10.319275l1.4888916 -10.916626l0.099609375 -5.7556458l-0.099609375 -4.762741l-0.8939209 -9.030365l-1.6881104 -8.634827l-2.4823608 -8.336136l-3.2766724 -7.937912l-3.871643 -7.7414703l-4.4693604 -7.4427795l-5.0617065 -7.243683l-2.6815796 -3.4738312l-0.099609375 -0.09687805l-0.09967041 -0.09954834l-0.19921875 -0.0995636l-0.39575195 -0.29867554l-0.19927979 0l-0.29882812 -0.0995636l-0.29614258 -0.4951172zm-357.55728 131.19061l0.29615784 0.8933716l0.29885864 1.9831238l1.0931091 0l0.39578247 1.0924683l0.29885864 3.075592l-0.099624634 1.4880371l-0.19923401 2.4809265l-0.19923401 0.9928894l-0.6946411 0l-0.4954071 -0.09954834l-0.29884338 -0.09954834l-0.2961731 -0.19644165l-0.099609375 -0.1991272l-0.099624634 -0.1991272l-0.099609375 -0.19909668l-0.19924927 -0.19644165l-0.29615784 -0.09954834l-0.29885864 0l-0.19923401 0.1991272l-0.19923401 0.09686279l-0.09692383 0.09954834l-0.29885864 0.5973511l-0.19923401 0.7937927l-0.19923401 0.7937927l0 0.7937927l0.099609375 0.7937927l0.49809265 0.6942444l0.099624634 0l3.1770172 0.29867554l3.473175 0.5946655l0.099624634 -0.1991272l0.099624634 -0.09954834l0 -0.09957886l0 -15.480255l-5.36055 -0.5946655zm8.141785 14.288239l0 0.29867554l-0.6946411 0.4951172l-0.19923401 0.7964783l0 0.5946655l0.39578247 0.39553833l0.7942505 0.1991272l0.9934845 0.09954834l0.5977173 -0.49508667l0.09692383 -0.7937927l0 -0.49780273l-0.6946411 -0.89334106l-0.5950165 -0.1991272zm-51.136536 9.528168l0.099609375 0.09954834l0 0.09957886l-0.099609375 -0.09957886l0 -0.09954834zm316.74603 8.435699l-0.39578247 0.09954834l-1.4888916 0.19644165l-1.3919678 0.7937927l-0.49539185 0.39822388l1.3892822 2.0827026l0.4980774 -0.39553833l0.8938904 -0.49780273l0.89385986 -0.09689331l1.9842834 -0.29867554l-0.099609375 -0.5946655l-0.099609375 -0.39822388l-0.59503174 -0.7937927l-0.39578247 -0.1991272l-0.29885864 -0.09954834l-0.29885864 0l-0.099609375 -0.19644165zm-128.18732 -1.3911438l0 0.09954834l0 0.09954834l-0.39578247 1.4880371l0.096954346 0.9929199l0.19921875 0.69421387l0.099609375 0.1991272l0.49542236 0.5946655l0.4980774 -0.4951172l0.8938904 -0.69421387l1.3892517 -0.1991272l0.59503174 0.1991272l0.4980774 0.29599l0.2961731 0.39822388l0.099609375 0.1991272l0.09963989 0.09954834l0 0.59469604l0.29882812 0.39553833l0.39578247 0.29867554l0.4981079 0.1991272l0.5950012 0.19641113l1.0931091 -0.09686279l0.59503174 -0.29867554l0.19924927 0.09954834l0.1965332 0.1991272l0.29885864 0.39556885l0.39846802 0.9928894l-0.099609375 0.8933716l-0.09963989 0.09954834l-0.29882812 0.19644165l-0.59503174 0.09954834l-0.6946411 0l-0.6946411 -0.09954834l-0.4980774 -0.19644165l-0.2961731 -0.1991272l-0.099609375 -0.09954834l-0.099609375 -0.4951172l-0.19924927 -0.39822388l-0.39578247 -0.39556885l-0.4980774 0l-0.794281 0.19644165l-0.29882812 0.49780273l-0.49542236 0.39553833l-1.190033 0.1991272l-0.4980774 -0.09957886l-0.49542236 -0.39553833l0 -0.09954834l0 -0.49780273l-0.19921875 -0.4951172l-0.099609375 0l0 -0.09954834l-0.49542236 -0.1991272l-0.59768677 -0.09957886l-1.7850647 -1.6844482l0.09692383 -0.89334106l0.099609375 -0.89334106l0.09963989 -0.7937927l0 -0.7937927l0.099609375 -0.09954834l0.29885864 -0.1991272l0.49539185 -0.1991272l0.59503174 -0.09954834zm3.7720642 -59.838318l-1.8846741 5.8552094l-3.5755005 9.724594l-3.6724243 8.037476l-4.270111 7.542328l-2.5820007 3.8693848l-2.8808594 4.4667664l-4.9647827 6.7485657l-2.1835327 2.4809265l-2.283142 2.2817993l-3.7747192 2.3813782l-2.8781738 0.89334106l-1.588501 0.09957886l3.0773926 0l0 0.09954834l-0.099609375 3.175171l0.099609375 0.69421387l0.49542236 0.9929199l2.2858276 3.3742676l3.0773926 4.6631775l2.4823914 4.267639l11.617645 0l7.347534 -0.09954834l12.907318 -0.7937927l5.8586426 -0.89334106l0.099609375 0l6.9517517 -1.0897827l7.0486755 -1.2915955l0.39846802 -0.4951172l0.39578247 -0.49780273l0.6946411 -0.9929199l0.29885864 -1.0897522l0.39575195 -1.7867126l0.99349976 -2.3813782l0.59503174 -1.0924683l0.79693604 -0.7937927l0.6946411 -0.5946655l0.89385986 -0.09954834l5.659424 0l0.099609375 -0.09957886l0.89385986 -0.49508667l0.89120483 -1.3911743l0.099609375 -0.7937927l0.099609375 -0.5946655l-0.099609375 -0.49508667l1.6881104 -0.1991272l0.4981079 1.3884583l0.39578247 0l0.4980774 0.09954834l1.4888916 0.09957886l0.7942505 0l0.794281 -0.09957886l0.29614258 0l0.29885864 -0.09954834l0.39846802 -0.1991272l0.2961731 -0.29599l0.29885864 -0.5946655l0.49539185 -0.49780273l0.19924927 -0.1991272l0.19921875 -0.09686279l0.09963989 0l0.1965332 0.09686279l0.7942505 0.29867554l0.79693604 -0.19909668l0.794281 -0.19644165l0.7942505 -0.3982544l1.4888916 -0.7937622l0.39578247 -0.1991272l0.29882812 -0.1991272l0 -0.29599l0.09963989 -0.09954834l0.099609375 -0.09957886l0.2961731 -0.09954834l0.7942505 -0.09957886l0.99349976 -0.09954834l1.986969 0.09954834l0.59503174 0.09957886l0.49539185 0l0.89385986 -2.6800537l-0.099609375 -0.29599l-0.49539185 -0.5946655l-1.4888916 -1.886261l-0.6946411 -0.9929199l-0.6946411 -0.7937927l-0.39846802 -0.29867554l-0.29885864 -0.29599l-0.09692383 -0.09954834l-0.19924927 -0.09957886l-0.099609375 -0.09954834l-0.29885864 -0.09954834l-0.099609375 0l-0.1965332 -0.09957886l-0.29885864 -0.19641113l-0.6946411 -0.49780273l-0.7942505 -0.39556885l-0.6946411 -0.49780273l-0.7942505 -0.29599l-0.29885864 -0.19909668l-0.49539185 0.09954834l-0.09963989 0l-0.099609375 0.09954834l-0.89385986 -0.39822388l-1.0931396 -1.3884583l-0.29614258 -0.7937927l-0.29885864 -1.7867126l0 -0.49780273l0 -0.19641113l-1.2896423 -3.078308l-0.09963989 -0.7937927l-0.4980774 -0.89334106l-0.49539185 -0.99020386l-0.6946411 -0.8933716l-0.6946411 -0.7937927l-0.69732666 -0.5973511l-0.2961731 -0.19641113l-0.39846802 -0.1991272l-0.2961731 0l-0.39846802 -0.29867554l-0.49539185 -1.0897827l-0.099609375 -0.5973816l8.6371765 0l-3.0773926 -1.9831238l-5.559784 -4.3671875l-4.6686096 -4.563614l-3.7720337 -4.9618683l-1.3892822 -2.58049l0 -0.09954834l-0.099609375 0l-0.7942505 -1.5875854l-0.09963989 0.0995636l-1.0931091 -0.2986908l-4.865143 -0.29867554l0.09963989 0l-2.8781738 -0.09686279l-3.5755005 -0.59736633l-4.270111 -0.6942291l-4.7655334 -0.99290466l-6.3540344 -1.3884735l-4.073578 -0.79377747zm138.6149 82.76404l-0.099609375 0.09686279l0 -0.09686279zm0 -2.779602l-0.5950012 0.39553833l-1.588501 0.89334106l0.19921875 0.49780273l0 0.1991272l0.09963989 0.19644165l-0.8938904 -0.8933716l0.39578247 1.6871643l-1.190033 0.29867554l0.09692383 0.5946655l0.29885864 0.9929199l0.29885864 0.7937927l0.099609375 0.39822388l0.09692383 0.19644165l0 0.09954834l0 0.09954834l0.099609375 0.7937927l2.5820007 -0.9928894l-0.29614258 -0.5946655l-0.19924927 -0.7937927l-0.19921875 -0.7937927l0.39846802 0.1991272l0.49539185 0l0.59503174 -0.09957886l-0.2961731 -1.4880066l0.1965332 -0.09957886l0 -0.29867554l-0.099609375 -0.7937927l-0.2961731 -0.7937927l-0.29885864 -0.69421387zm-8.6371765 8.037445l-0.39846802 1.1920471l-0.2961731 -0.5973816l0 0.8933716l0.19656372 0.9928894l0.099609375 0l0.099609375 0.09957886l-0.29882812 -0.09957886l-0.39578247 0l-0.794281 0.29870605l-0.6946106 0.49508667l-0.5977173 0.5946655l-0.2961731 0.69692993l-0.19921875 0.7937927l0 0.6942444l0.099609375 0.69421387l0.29885864 0.5946655l0.1965332 0.29867554l0.4981079 0.1991272l0.39578247 -0.09954834l0.39846802 -0.29867554l0.29614258 -0.1991272l0.69732666 -0.29599l0.49542236 -0.29867554l0.29885864 -0.4951172l0.1965332 -0.5973511l0.099609375 -0.8906555l0 -0.8933716l-0.19921875 -0.5973511l0.29885864 0.39822388l0.4980774 0.1991272l0.59503174 0.09686279l0.39578247 -2.082672l-0.09963989 -0.1991272l-0.09692383 -0.29599l0 -0.39822388l0.09692383 -0.6942444l-1.8846741 -0.1991272zm-366.0975 16.871399l0 0.59469604l0 2.779602l1.6881256 0l0 2.8764648l2.5820007 0l-0.298851 -4.3671875l-1.6881332 -0.5946655l0 -1.2889099zm-106.24434 -129.9017l-1.2896538 0.29867554l-0.09961796 0.29867554l-1.292347 2.7769318l-1.8846717 5.7556458l-2.1862197 8.831253l-1.289654 5.8552094l0 0.09954834l-0.69463617 3.772522l-0.7942546 7.738785l-0.099618375 7.841034l0.3957811 7.7387695l1.3919648 11.61087l3.276637 14.88559l1.9842901 7.047241l1.4888911 4.364502l3.8743467 8.336121l4.9647646 7.7414856l5.659401 7.5423584l9.135275 11.013489l8.836418 11.016174l5.1640015 7.5423584l2.283146 3.9689636l0 0.09954834l2.9777794 2.2818298l-0.29616165 -1.4880371l-0.59770966 -4.3671875l-0.7942543 -8.930817l0 -8.831238l1.0931091 -8.634827l1.0931091 -4.1680603l3.8716545 -13.198456l5.958256 -19.747864l3.376255 -13.494446l1.28965 -6.848114l1.9869843 -10.916626l2.083908 -16.968277l0.29885864 -11.115753l-0.49809265 -5.2578583l-1.190033 -0.09954834l-1.3892746 5.5565186l-2.6816177 8.03746l-2.3827667 4.9618683l-1.391964 2.381363l-5.858639 9.03038l-7.942543 14.490021l-4.466675 9.923737l-3.475872 10.418823l-2.0866013 10.61795l-0.39578247 8.137024l0.29616547 5.459656l0.69732666 5.6560974l1.3892746 5.5565186l0.8938713 2.879181l-1.391964 -3.6729736l-2.083908 -7.6419067l-2.3827667 -11.8072815l-1.8873634 -7.9405823l-1.4888897 -5.357422l-3.9712734 -10.418823l-6.951746 -15.283844l-4.367055 -10.222382l-2.0866013 -5.1582947l-3.2766361 -10.518387l-1.5885096 -8.139725l-0.49539948 -5.5565186l0 -5.755661l0.59501743 -5.9547577l0.49539948 -3.0756073l0.19923687 -0.99290466zm580.969 0l0.19921875 0.99290466l0.59503174 3.0756073l0.49536133 5.9547577l0 5.755661l-0.49536133 5.656082l-1.4888916 8.137024l-3.3762817 10.521088l-1.9869995 5.1582794l-4.466675 10.122833l-6.852112 15.283844l-3.9712524 10.418823l-1.588501 5.357422l-1.7877808 7.9405823l-2.4823608 11.8072815l-2.086609 7.6419067l-1.2896729 3.6729736l0.8939209 -2.779602l1.2896118 -5.6560974l0.7942505 -5.556549l0.19927979 -5.559204l-0.395813 -8.137024l-2.086609 -10.61795l-3.47583 -10.319275l-4.466675 -10.023285l-7.9452515 -14.390472l-5.759033 -9.129929l-1.4888916 -2.2817993l-2.283142 -5.061432l-2.6816406 -8.03746l-1.3892212 -5.5565186l-1.2923584 0.09954834l-0.49542236 5.357422l0.29888916 11.01619l2.0838623 16.968277l1.9869995 10.916626l1.3892822 6.848114l3.3762207 13.494446l5.958252 19.747864l3.871704 13.198456l1.0930786 4.1680603l0.9935303 8.634827l0 8.930817l-0.7943115 8.831238l-0.59765625 4.3671875l-0.19927979 1.5875854l2.8808594 -2.3813782l0.099609375 -0.09954834l2.1835327 -3.9689636l5.263611 -7.5423584l8.836426 -11.016174l9.035706 -11.013489l5.659363 -7.44281l4.9647827 -7.841034l3.9712524 -8.236572l1.3919678 -4.364502l2.0839233 -7.1467896l3.177002 -14.88559l1.4915771 -11.61087l0.395813 -7.7387695l-0.19927979 -7.7414703l-0.6945801 -7.8383484l-0.6946411 -3.772522l-1.2896729 -5.9547577l-2.1862183 -8.831253l-1.984314 -5.7556458l-1.192688 -2.7769318l-0.09967041 -0.19911194l-1.3892212 -0.39823914zm-462.80814 140.12143l0 0.1991272l-0.099617004 -0.09957886l-1.1927261 0.29867554l0 0.39556885l0.19923401 0.09954834l1.389267 3.5733948l0.8938751 1.9831543l1.7877502 2.4809265l2.9777832 2.779602l1.3919678 -2.4809265l-1.7877502 -3.5733948l-1.389267 -1.0897827l-1.0931244 -3.078308l-3.0773926 -1.4880066zm52.127335 13.497131l1.1927185 0.29867554l2.1835327 1.4880066l0.7942505 0.9929199l0.49809265 0.69421387l0.5950165 0.5946655l-2.283142 2.2818298l-2.2858276 -2.3813782l-2.083908 -2.3813782l0.099609375 -0.49508667l0.099624634 -0.49780273l0.69462585 -0.4951172l0.4954071 -0.09954834zm88.67113 23.617249l-0.29885864 0.1991272l-1.2896729 1.0924683l-1.1927185 1.0897827l1.2923584 0.89334106l1.9842834 1.4880371l1.4888916 -2.0827026l-0.6946411 -0.4951172l0.39846802 -0.29867554l-0.89385986 -0.89334106l-0.7942505 -0.9929199zm15.29007 15.579834l-0.19924927 0.7937622l-0.29614258 -0.49508667l-0.794281 1.7866821l0.99349976 0.4951172l-0.19921875 0.29867554l1.7877197 1.886261l1.4888916 -1.5875854l1.1900635 -1.1920166l-1.5885315 -0.7937927l-1.4888916 -0.7937927l0.19924927 -0.39822388zm-108.925964 10.817047l0.29885864 0.9929199l0.099609375 0.09954834l1.5885162 2.4809265l0.19923401 2.182251l2.3827667 0.6942444l0.9934845 1.590271l2.4823914 -1.3911438l-1.2923431 -3.4738464l-3.0774078 -2.5777893l-3.6751099 -0.5973816zm358.75 -120.769104l-0.099609375 0.39556885l-2.78125 6.2534485l-4.070923 13.198425l-2.7785034 13.793121l-1.8873901 14.091797l-1.8873291 21.435028l-2.1835327 21.2359l-2.1835327 13.89267l-1.588501 6.7485657l-0.7942505 2.8791504l-2.2858582 5.556549l-4.1705017 8.236572l-2.4823914 5.6560974l-0.7942505 2.082672l0 0l1.6881104 -1.3884583l5.8586426 -4.267639l12.710785 -8.336121l13.305786 -8.433014l13.303101 -8.933502l6.3566895 -4.762726l6.055176 -4.8623047l11.022644 -10.418854l7.347534 -8.634796l4.369751 -6.1512146l3.871643 -6.44989l3.3762817 -6.9476624l1.4888916 -3.5733948l1.7877197 -5.357422l2.5820312 -11.312195l1.1900024 -11.809967l0.099609375 -11.909546l-0.39575195 -5.9520874l-1.192749 0l-0.29614258 3.175171l-1.2923584 6.1512146l-1.8873291 5.855194l-2.5793457 5.5565186l-4.7681885 7.940613l-7.8429565 9.923706l-4.369751 4.7627563l-9.135254 9.425903l-13.8012085 14.290924l-8.241394 10.023285l-3.475891 5.3573914l-2.3827515 3.772522l-5.1640015 7.1441345l-2.8781738 3.2747192l1.984314 -3.2747192l1.8873901 -3.4738464l2.086609 -4.9618835l3.177002 -10.219696l1.6881104 -10.518402l0.395813 -10.717499l-0.395813 -5.3601074l-0.89385986 -6.7485657l-2.6816406 -13.198425l-2.5819702 -13.098877l-0.89385986 -10.023285l0.19921875 -6.8454285l0.49536133 -3.4738464l0.09967041 -0.6942444zm-468.3706 0l0.099624634 0.6942444l0.39846802 3.4738464l0.19924164 6.8454285l-0.8938751 10.023285l-2.5820007 13.098877l-2.6816177 13.198425l-0.7942543 6.7485657l-0.39847565 5.3601074l0.29885483 10.717499l1.7877464 10.518402l3.0774002 10.219696l2.186222 4.9618835l1.7850494 3.4738464l1.9869843 3.2747192l0 0l-2.8808594 -3.2747192l-5.1613045 -7.1441345l-2.283146 -3.772522l-3.5754929 -5.3573914l-8.241402 -10.023285l-13.801182 -14.290924l-9.135273 -9.425903l-4.369747 -4.7627563l-7.842928 -9.923706l-4.7682195 -7.940613l-2.4823823 -5.5565186l-1.9842904 -5.855194l-1.192728 -6.1512146l-0.29616272 -3.175171l-1.2923465 0l-0.3957811 5.9520874l0.09692599 11.909546l1.2923465 11.809967l2.4823818 11.312195l1.8873644 5.357422l1.3892727 3.5733948l3.3762546 6.9476624l3.8716555 6.44989l4.3697453 6.1512146l7.3475285 8.634796l11.119566 10.418854l5.958256 4.8623047l6.3540344 4.762726l13.305786 8.933502l13.405403 8.433014l12.710762 8.336121l5.759018 4.267639l1.7850571 1.3884583l-0.89118195 -2.082672l-2.4823837 -5.6560974l-4.0735855 -8.236572l-2.382759 -5.556549l-0.7942581 -2.8791504l-1.4888916 -6.7485657l-2.283142 -13.89267l-2.183525 -21.33548l-1.8873672 -21.434998l-1.8873672 -13.992249l-2.7785416 -13.793121l-4.0735855 -13.198425l-2.6789246 -6.2534485l-0.19923401 -0.39556885zm117.565834 86.0361l5.161316 4.862274l10.923019 8.933502l11.617645 7.9379272l12.312302 6.9476624l6.3540344 3.075592l-0.09692383 0.09957886l0.5950165 0.29599l7.9425507 3.4738464l16.482803 5.459656l16.781647 3.8693848l17.17743 1.9831238l8.736816 0.29867554l0 36.915283l-5.4601746 -0.09954834l-11.022644 -0.6942444l-10.820709 -1.3884583l-10.723755 -1.886261l-10.626877 -2.3813782l-10.524536 -3.075592l-10.325317 -3.5733948l-10.128769 -4.168091l-5.064377 -2.2817993l0.099624634 0l-0.6946411 -0.29867554l-7.4471436 -3.7698364l-14.595444 -8.435699l-13.704254 -9.525482l-12.907318 -10.717499l-6.157486 -5.7556458l26.116165 -26.100891zm120.344376 -284.11224l7.347534 0.19911957l14.595428 1.5875778l14.495819 2.9760437l14.100037 4.168068l6.8521423 2.680046l0.5950012 0.29868317l4.9647827 2.0826874l4.964752 2.3813705l-0.099609375 0.0995636l0 0.09955597l-0.099609375 0.0995636l-0.39578247 0.09955597l-0.39846802 0.19643402l-0.19656372 0.29867554l-0.19921875 0.29868317l-0.09963989 0.49510956l-0.099609375 0.59467316l0 1.1920242l0.099609375 0.3955536l0.09963989 0.49780273l2.283142 0l1.6881104 0.19911957l0.09963989 0.19642639l0.099609375 0.19911957l0.099609375 0.39823914l0.099609375 0.69423676l0 0.29598236l0 0.6969223l0.6946411 -0.09955597l0.8938904 0.09955597l1.3892517 0.9902191l0.49542236 0.6969223l0.39846802 0.89066315l0.19921875 0.6969147l0.09963989 0.6942291l0 0.1991272l-0.19924927 0.6942291l0.19924927 0.49510956l0.39578247 0.39823914l0.39846802 0.19642639l0.1965332 0l0.09963989 0.0995636l0 1.7866974l-0.2961731 1.8862686l0 -0.0995636l-0.099609375 0.3955536l0.099609375 0.39823914l0.1965332 0.29867554l0.29885864 0.19642639l0.49539185 0.39823914l0.69732666 0.2986908l1.2896729 0.6942291l0.6946411 0.6942291l0.19921875 0.29599l0 0.7964783l-0.099609375 0.7937927l-0.099609375 0.9902191l-0.29885864 0.89334106l-0.19656372 0.6942291l-0.19921875 0.2986908l-0.099609375 0.19911194l-0.09963989 0l-0.099609375 0.1991272l-0.1965332 0.19642639l-0.09963989 0.29867554l0.19656372 0.4951172l0.19921875 0.09954834l0.29885864 0.1991272l0.2961731 0.1991272l0.29885864 0.29597473l0.29885864 0.1991272l0.099609375 0.0995636l0 0.0995636l-0.099609375 0.49510193l0.19921875 0.49780273l0.2961731 0.29599l0.29885864 0l0 0.0995636l0 0.09954834l0.099609375 0.49780273l0.39578247 3.471161l0.29885864 1.886261l0 0.49510193l4.0708923 0.29867554l0.099609375 -0.5946655l0.19924927 -0.6942291l0.6946106 -0.49780273l0.794281 -0.49510193l1.0903931 -0.1991272l1.0931091 -0.19911194l0.99349976 -0.0995636l0.8938904 0.0995636l0.29614258 0l1.192749 0.5973511l2.1835022 2.0826874l0.8938904 1.1920319l0.6946411 1.2889099l0.59768677 1.0924683l0.2961731 0.99290466l0.099609375 0.3955536l0 0.19911194l-0.19921875 0.1991272l-0.19656372 0.19642639l-0.39846802 0.0995636l-0.6946411 0.19911194l-0.29882812 0.0995636l-0.59503174 0l0.099609375 1.7866974l-6.9517517 6.944992l-0.39578247 -0.19911194l-0.4980774 -0.19644165l-0.39578247 0l-0.49539185 0.0995636l-0.09963989 -0.5973511l-0.099609375 -0.8933563l0 -1.3884583l0.099609375 -0.6942291l0.19656372 -0.1991272l0.4980774 -0.19911194l0.39578247 -0.09687805l0.29885864 -0.09954834l0.29885864 0l0.099609375 0.09954834l0.19656372 0l0 0.09687805l0.39846802 0l0.099609375 -0.09687805l0.099609375 0l0.096954346 -0.09954834l0.099609375 -0.0995636l0 -0.0995636l0 -0.0995636l0.099609375 0l0 -0.09954834l0 -0.1991272l-0.099609375 0l0 -0.29599l-0.19656372 -0.0995636l-0.29882812 -0.49780273l-0.39849854 -0.6942291l-1.190033 -1.6871338l-1.588501 -1.9831238l-1.6881409 -1.9858246l-1.588501 -1.687149l-0.6946411 -0.5946655l-0.7942505 -0.49510193l-0.29885864 -0.1991272l-0.39846802 0l-0.39578247 -0.0995636l-0.39846802 0.1991272l-0.49539185 0.19642639l-1.4888916 -0.19642639l-0.7942505 -0.39823914l-0.6946411 -0.4951172l-0.5977173 -0.49780273l-0.2961731 -0.5946655l0 -0.49510193l-0.099609375 -0.59736633l-0.29885864 -0.5946655l-0.39578247 -0.6942291l-0.4980774 -0.6942291l-1.190033 -1.391159l-1.4915771 -1.4880219l-2.9777832 -2.677353l-0.99349976 -0.7937927l-0.099609375 -0.0995636l-0.2961731 -0.19911194l-1.0931091 -0.49780273l-0.59503174 -0.19642639l-0.6946411 -0.0995636l-0.7942505 0.19911194l-0.39846802 0.6942291l-0.39578247 0.8933563l-0.29885864 0.7937927l-0.099609375 0.49510193l0.19924927 0.5946808l0.29614258 0.49780273l0.5977173 0.29597473l0.59503174 0.1991272l0.5950012 0l0.39846802 -0.1991272l0.19924927 -0.09686279l0.1965332 0l0.39846802 0.3955536l1.2896729 1.2888947l1.2923279 1.1920319l0.39578247 0.5946655l0.19924927 0.39823914l0.099609375 0.29599l-0.099609375 0.1991272l-0.89385986 0.99290466l-1.1900635 0.5946808l-0.7942505 0.29867554l2.1835327 2.58049l2.0839233 0l0.39846802 3.4738312l0.2961731 0.19644165l0.29882812 0.09954834l0.99349976 0.6942291l1.0931091 0.7937927l0.59503174 0.8933563l0.099609375 0.39823914l0 0.3955536l-3.2766418 -2.4809418l-6.652893 -4.4640503l-3.5755005 -1.9858246l0.09963989 -0.49510193l-0.09963989 -0.39823914l0 -0.0995636l0 -0.29599l0.09963989 -0.0995636l0.099609375 -0.0995636l0.19924927 -0.0995636l0.5950012 0l0.6946411 0.6942444l0.19924927 0.29867554l2.9777832 -0.29867554l0.59768677 -2.7769318l-3.4758606 -2.779602l-3.0801086 0l-0.09692383 0.5946655l0 0.0995636l-0.19921875 0.39823914l-0.099609375 0.0995636l-0.19924927 0.09686279l-0.2961731 -0.09686279l-0.7942505 -0.39823914l-0.29885864 -0.0995636l-0.29885864 -0.0995636l-0.6946106 -0.0995636l-0.794281 0l-0.49539185 0.49780273l-0.29885864 0.5946655l0 0.5946808l0 0.5973511l0.09963989 0.5946808l-4.5690002 -2.2818146l-4.6658936 -1.9858246l-3.971283 -1.5875702l-8.241394 -2.6800537l-8.341034 -2.182251l-8.540253 -1.5875854l-4.2674255 -0.49780273l-0.4981079 0.59736633l-0.39578247 0.3955536l-0.6946411 0.5973511l-0.59768677 0.4951172l-1.2896729 1.0924683l-1.4888916 1.0897827l-1.0931091 0.5973511l-1.0931091 0.7937927l4.9647827 0.3955536l9.730286 1.3884583l9.533752 2.1849365l9.431427 2.9760437l4.5689697 1.886261l5.659424 2.3813782l5.460144 2.779602l-0.099609375 -0.0995636l0.39846802 0.29599l0.39846802 0.1991272l4.466675 2.4809265l8.540253 5.6560974l4.0708923 3.0782776l0.2961731 0.6942291l1.0931091 1.1893463l0.7942505 0.39823914l0.09963989 0l0.7942505 0.0995636l0.7942505 0.6942291l0.89385986 0.7937927l0 2.2817993l0.7942505 -0.19911194l0.794281 0l1.1927185 0.6969147l0.7942505 0.6942291l0.49539185 0.7937927l-3.871643 3.8694l2.8781433 1.6871338l2.78125 1.7866974l2.5820007 -2.6800537l0.19924927 0.1991272l0.1965332 0.19911194l0.39846802 0.4951172l0.7942505 0.6942291l0.59503174 0.29867554l0.5950012 0.0995636l0.794281 0.9902191l0.89385986 0.8933563l-0.2961731 0.39823914l0 0.29867554l0 0.8906555l0.19656372 0.69692993l0.39846802 0.49510193l0.5950012 0.2986908l0.794281 0l0.6946106 -0.1991272l0.69732666 0.8933563l0.096954346 1.0897675l0.29882812 1.1920319l0.8938904 0.5946808l0.7942505 0.5973511l0.59503174 0l0.29882812 0.4951172l0.39849854 0.49510193l3.871643 2.9787292l7.646393 6.44989l3.7720337 3.3742828l-1.0931091 -1.886261l-0.99349976 -1.886261l0.099609375 -0.09687805l0.19924927 0l0.39846802 -0.19911194l0.49539185 0l0 0.5946655l0.8938904 -0.7937927l0.29885864 0l0 -0.29867554l0 -0.0995636l0.09692383 -0.09686279l0 -0.1991272l-0.09692383 -0.19911194l0 -0.0995636l-0.19924927 -2.182251l-1.986969 -1.2915955l-0.6946411 -2.9760437l-0.59503174 0.1991272l-0.39846802 0l-0.89385986 0.3955536l-0.49542236 0.19911194l-0.49539185 0.4951172l-0.099609375 0.29867554l-0.09963989 0.39823914l-1.8873596 -2.9787292l-2.0838928 -2.87648l0 -0.0995636l0.29614258 -0.5946655l0.29885864 -1.1920319l-0.19921875 -0.49510193l-0.2961731 -0.49780273l-0.89385986 -0.6942291l-0.5977173 -0.1991272l-0.8938904 -0.29599l-0.1965332 -0.0995636l-0.099609375 -0.29867554l-0.29885864 -0.99290466l0 -0.0995636l-0.29885864 -0.7937927l-1.190033 -1.189331l-0.6946411 -0.2986908l-0.7942505 -3.1751556l-1.8873596 1.0924683l-0.99349976 -1.0924683l-0.99349976 -1.0924683l0.8938904 -2.7769165l-0.7942505 -0.0995636l-0.39578247 -0.1991272l-0.29885864 -0.39553833l5.8586426 -5.8552246l1.7877502 1.3884735l1.3892517 1.6871338l0.4981079 0.8933563l0.39578247 0.79377747l0.099609375 0.2986908l0.099609375 0.19642639l0 0.0995636l-0.099609375 0.39823914l0.099609375 0.3955536l0.29885864 0.29867554l0.1965332 0.19911194l0.5977173 0.0995636l0.49539185 0.09687805l1.1900635 0.09954834l0.39846802 -0.09954834l0.49539185 0l0.099609375 -0.4951172l0.19924927 -1.0924683l0.39846802 -0.5946655l0.39578247 -0.2986908l1.0931091 0l0.49539185 0.2986908l0.29885864 0.29867554l0.099609375 0.0995636l0.59503174 2.7769165l0.29885864 1.3911438l0 0.09687805l1.190033 2.085373l1.6881409 1.7867126l2.283142 -0.1991272l0.59768677 1.1920319l2.7785645 0.49510193l1.2923279 1.3884583l1.190033 1.5875854l0.09963989 0.1991272l0.29885864 0.19911194l0.29614258 0.0995636l0.29885864 0.0995636l0.59503174 0.09686279l0.6946411 0.0995636l1.3919678 0l0.5950012 0.0995636l0.29885864 0l0.5950012 0.19911194l0.59503174 0.39823914l0.4980774 0.3955536l0.19656372 0.4951172l0 0.09954834l0.69732666 1.5875854l0.8911743 1.3911438l0.19924927 0.19644165l0.19921875 0l0.29885864 0.09954834l0.8938904 0.2986908l0.49539185 0.19911194l0.39578247 0.19642639l0.19921875 0.2986908l0.09963989 0l0.49539185 1.5875702l0.79693604 1.391159l0.09692383 0.09686279l1.9869995 1.5875854l0.19921875 2.2845001l2.4823914 0.19642639l0.59503174 2.58049l4.566284 -0.19642639l2.2858276 -1.590271l0.59503174 -0.3955536l0.5950012 -0.39823914l0.99349976 2.3840637l0.89385986 2.2818146l2.5820007 6.8454285l4.170532 13.994919l2.8781433 14.288223l1.4888916 14.490036l0.29885864 7.2436676l-4.270111 0l1.0931091 1.886261l0.89385986 1.7839966l0.59503174 1.2915955l0.5950012 1.189331l1.0931091 0l0 1.1920471l-0.099609375 1.189331l0.29885864 0.49780273l0.19921875 0.5946655l0.9908142 0.09957886l1.1927185 0.29867554l0.99349976 0.39553833l1.7877502 1.3884583l0.6946411 0.7964783l0.1965332 -3.1778564l0.099609375 -3.2747192l36.939575 0l-0.19921875 5.6560974l-0.6946411 11.2153015l-1.3919678 11.016205l-1.9842834 11.013489l-2.5820007 10.817078l-3.1770325 10.717529l-3.7747192 10.518372l-4.2701416 10.32196l-2.3827515 5.061432l-3.7720337 7.4427795l-8.341034 14.18866l-9.431427 13.397583l-10.427612 12.703308l-5.759033 6.0516357l-26.013855 -26.098175l4.6658936 -5.061432l8.836426 -10.717499l7.845642 -11.411743l6.9490356 -12.006409l3.0801086 -6.253479l2.0838928 -4.4640503l3.6751099 -9.329041l3.0773926 -9.428619l2.5820007 -9.6250305l1.0904236 -4.8623047l-0.09692383 0.39553833l-0.099609375 0.29867554l-1.4888916 4.5663147l-3.9739685 9.525482l-5.759033 10.717529l-7.6436768 12.800201l-4.768219 7.3459167l-3.473175 5.8525085l-7.5467834 11.2153015l-4.1705017 5.2578735l-4.4693604 6.1538696l-8.042175 10.717529l-7.4471436 9.030365l-7.0486755 7.5423584l-3.4758606 3.3742676l-0.7942505 0.7937927l-0.7942505 0.6942444l5.958252 -4.168091l11.418396 -9.229492l5.360565 -5.0614014l26.113464 26.100891l-5.6593933 5.3573914l-12.013428 10.023285l-12.611145 9.030365l-13.305786 8.037476l-6.949066 3.5733948l-5.263611 2.5805054l-10.624176 4.6631775l-10.923004 4.068512l-11.119568 3.3742676l-11.318817 2.779602l-11.421112 2.182251l-11.518036 1.3911438l-11.61496 0.89068604l-5.8586426 0.09954834l0 -36.915283l5.6593933 -0.19909668l11.318817 -0.8933716l11.219177 -1.6871338l11.022644 -2.4809265l5.4601746 -1.5875854l3.2766113 0.9929199l1.192749 3.672943l2.3827515 -0.29867554l1.2923584 -1.0924683l5.1612854 -0.19644165l2.5820007 -2.3813477l2.78125 -0.49780273l10.126068 -8.632141l0 0l-0.49539185 0.29599l-0.49539185 0.1991272l-0.99349976 0.4951172l-1.588501 0.29867554l-0.4981079 0l-0.5950012 0.09954834l0.5950012 0l0.15078735 -0.048431396l0 0l-0.05114746 0.048431396l-0.6946411 0.29867554l-0.8938904 0.39556885l0 0l0.09963989 -0.09957886l0 0l-2.0839233 1.0924683l-4.865143 1.6871643l-8.044861 1.6871338l-5.9555664 0.69421387l-4.5689697 0.39556885l-4.665924 0.09954834l-3.4758606 -0.09954834l-6.7525024 -0.39556885l-3.2766418 -0.49508667l-5.958252 0.99020386l-12.113068 1.1920471l-6.154785 0.19909668l0 -8.930786l-3.2766418 -1.3911743l-3.179718 -1.3884583l0 11.61087l-8.141785 -0.29867554l-16.28357 -1.886261l-15.887787 -3.5707092l-15.389679 -5.061432l-7.546768 -3.2747192l-0.5950165 -0.29867554l-6.2571106 -2.9760437l-12.113068 -6.7485657l-11.418411 -7.741455l-10.723785 -8.731689l-5.064377 -4.7627563l3.7747192 -3.8720703l0.19654846 0.39822388l0.099624634 0.3982544l0.19923401 1.189331l0.69462585 1.3884583l0.49809265 0.3982544l0.99079895 0.1991272l0.39848328 -0.09957886l-0.29885864 0l12.411911 -0.19909668l4.2701263 -3.6729736l10.723785 -0.19644165l1.0931091 -0.09954834l1.5885162 -0.89334106l0.49539185 -0.5946655l0.29885864 -0.7937927l0.19654846 -1.5875854l-0.09693909 -0.7937927l-0.29884338 -1.4907227l-0.6946411 -1.2888794l-0.29885864 -0.59469604l-0.29615784 -0.39822388l-0.29885864 -0.29867554l-0.29885864 -0.09686279l-0.099609375 -0.3982544l0 -0.39553833l6.157486 4.4640503l13.2061615 7.741455l6.949066 3.0756226l-0.09693909 0.1991272l0.59503174 0.19909668l7.0486603 2.7769165l7.151001 2.2818298l-2.6816406 -3.7698364l-3.0773926 -4.7627563l-2.3827667 -0.89334106l-2.3854523 -0.9929199l0.099624634 0l-0.6946411 -0.29867554l-4.2701263 -1.8835449l-8.341019 -4.267639l-7.9425507 -4.8623047l-7.546768 -5.459656l-3.5727997 -2.9760437l-5.263611 -4.961853l4.0708923 -4.068512l0 0l-7.347534 0.39553833l-16.183945 1.886261l-8.440643 1.3884583l-7.6463776 1.3911438l-16.978195 1.886261l-8.141785 0.5946655l-4.768219 0.29599l-4.170517 0.09957886l1.3919678 1.1920166l1.5885162 0.7937927l0.19923401 0.09957886l3.672409 -0.29870605l0 -0.5946655l0 -0.19909668l0.099624634 -0.09957886l0.099609375 0l0.29885864 0.1991272l0.4954071 0.4951172l0.39578247 0.49780273l0.29884338 0.5946655l0.099624634 0.29867554l0 0.4951172l0.29885864 0.39822388l0.29615784 0.4951172l0.39846802 0.4951172l0.99349976 1.0924683l1.0904083 1.0924683l2.1862335 1.9831238l0.69462585 0.69692993l0.099624634 0.09686279l5.759018 1.2915955l0.99079895 0.69421387l5.263611 6.44989l5.559784 6.0543213l-26.013855 26.098206l-4.369751 -4.563629l-8.141769 -9.428589l-7.546768 -9.923737l-6.8494415 -10.319275l-6.2571106 -10.717499l-5.659401 -11.016205l-4.96476 -11.411713l-4.1705093 -11.710449l-1.8873672 -6.0543213l-0.099617004 -0.4951172l-0.09692383 0l-1.7877502 -6.648987l-2.9804688 -13.497131l-1.9842911 -13.593994l-1.1927338 -13.793091l-0.19923401 -6.848114l36.939575 0l0.1965332 5.7556458l0.99349976 11.5112915l1.7877502 11.312195l2.482376 11.31485l1.588501 5.556549l0.19924927 0.5946655l0.099609375 0.1991272l0 0.09954834l0.099624634 0.29599l0 0.09954834l-5.064392 0l-0.39846802 -0.99020386l-1.9842834 -0.3982544l-0.19924927 -2.5804749l-4.1705017 0.29867554l-0.6946335 1.2889099l-3.6751175 0.19909668l0.099624634 0.6942444l-0.099624634 0.5946655l-0.7942505 1.5875854l-0.6946335 0.69692993l-0.5950241 0.69421387l-0.59770966 0.29599l0 0.09954834l-0.09692383 0l-0.19923401 -0.39553833l-0.29885864 -0.29867554l-0.39578247 -0.5946655l-0.39846802 -0.49780273l-0.29616547 -0.4951172l-0.099617004 -0.29867554l1.7850494 -0.4951172l1.7877502 -0.39553833l0.49809265 0l0 -2.6800537l-8.839111 -0.29867554l-0.89118195 1.3884583l-3.4758759 0.1991272l0 3.5733948l-1.0931091 0.29599l-0.099617004 0.09954834l-0.5950165 0.49780273l-0.099617004 0.6942444l0 0.69421387l0.099617004 0.5946655l0.39578247 1.0924683l0.19923401 0.29867554l0 0.09957886l0.099617004 0l0.29885864 0.4951172l0.099617004 0.89334106l-0.099617004 0.4951172l-0.39847565 0.89334106l-0.19923401 0.29867554l0 0l0.099617004 -0.09954834l-0.49539948 0.7937927l-0.099617004 0.89334106l0.19923401 0.69421387l0.29616547 0.6942444l0.7942505 1.1920166l0.29885864 0.29599l0.19923401 0.09957886l-0.6946335 0.49780273l-0.29885864 0.19641113l-0.39578247 0.09957886l0 0.49780273l0.19654846 0.89334106l0.8938675 1.4880066l0.5977173 0.59469604l-0.19924164 0.89334106l0.39578247 1.5875854l0.6946335 0.69421387l0.19924164 3.8721008l1.4888916 0.8906555l0 2.1849365l1.0931091 1.9831238l4.4693604 0l-0.298851 -6.3503113l-0.099617004 -0.09957886l-0.6946411 -1.0897827l0 -0.49780273l0.099617004 -0.49508667l0.5950241 -0.29867554l0.5950165 -0.1991272l0.9934921 0l0.099617004 0.09954834l0.19923401 0.6942444l0.9934921 0.89334106l0.49539948 0.29867554l0.6946335 0.29867554l0.29885864 0.09689331l0.39578247 1.1920166l1.2923431 1.7867126l0.8938751 0.49508667l0.99079895 0.29867554l1.0931091 -0.29867554l0.49809265 -0.19641113l0.7942505 -0.9929199l0.29616547 -0.5973511l0.29885864 -0.9902344l0.29615784 -0.29867554l0.099624634 0.09954834l0.19923401 0.39556885l0.19923401 0.49780273l0.29885864 0.49508667l0.39578247 0.7937927l0.69462585 0.7937927l0.19924927 0.1991272l0.19923401 0.29867554l0 -0.09954834l0 -0.09957886l1.4888916 -6.648987l1.787735 -6.0543213l0.8938751 -2.3813782l2.083908 -4.6631775l4.0708923 -6.848114l3.3762665 -4.3671875l-1.3892822 -5.2578735l-2.3827667 -10.518372l-1.588501 -10.620636l-0.8938751 -10.717529l-0.19923401 -5.3573914l33.36139 0l0.29884338 6.9476624l0.79426575 7.0445557l-2.083908 0.29867554l-2.086609 0.5946655l-0.29615784 0.09957886l-1.0931091 3.5707092l-0.8938751 0.39822388l-1.3892822 1.2889099l-0.597702 0.69692993l-0.7942505 1.4880066l-0.19654846 0.5946655l-1.3919678 0.6942444l-0.9934845 1.0924683l-0.39578247 0.5946655l-0.19923401 0.69421387l0 0.49780273l0.19923401 0.4951172l-0.39848328 0.09954834l-0.1965332 0.09957886l-0.5977173 0l0 1.6871338l2.8808594 -1.7867126l5.958252 -2.9760132l6.3540344 -2.3813782l6.852127 -1.6871338l3.5727997 -0.49780273l-0.39578247 -0.09957886l-0.29884338 -0.09954834l-0.19923401 -0.19644165l-0.099624634 -0.09954834l-0.09692383 0l-0.099624634 -0.6942444l-0.39846802 -0.5973511l-0.5950165 -0.4951172l-0.5950165 -0.29867554l-0.5977173 -0.29599l-0.5950165 -0.1991272l-0.49539185 -0.09954834l-0.5977173 0.1991272l0 -0.09957886l-0.19654846 -0.19909668l-0.29884338 -0.39556885l-0.59503174 -3.9716187l-0.69462585 -8.037476l-0.099624634 -3.968933l13.801178 0l0 0.39822388l-3.1770172 3.371582l0.39578247 3.2747192l-1.7850494 0.5973816l-0.49809265 1.8835449l-0.9934845 5.260559l2.880844 0.29867554l0.099624634 0.19644165l0 0.39822388l0 0.5946655l-0.19923401 0.3982544l-0.19923401 0.39553833l-0.79426575 0.3982544l-0.9934845 0.5946655l-0.4954071 0.39822388l-0.29884338 0.59469604l0 0.19909668l0 0.29599l2.482376 -0.29599l2.482376 -0.19909668l0.49809265 0l0 -0.1991272l0 -0.29867554l0.099624634 -0.5946655l0.09692383 -0.39556885l0.69732666 -0.5973511l0.19654846 -0.7937927l0 -0.7937927l-0.29615784 -0.6942444l-0.5977173 -0.9928894l-0.29615784 -0.39556885l-0.19923401 -3.968933l4.1705017 -0.3982544l1.0931091 -1.7866821l2.4823914 0l-0.29885864 -6.0516357l0.39846802 -0.7937927l0.7942505 -0.29867554l0.79426575 0l0.39578247 0.09954834l0.39846802 0.09954834l0.099624634 0.09957886l3.5727997 0.29599l0.29884338 -0.5946655l9.234894 0l0.6946411 4.6631775l-2.482376 2.0853577l-0.8938751 0.6942444l-0.99349976 1.6871338l-0.099609375 0.89334106l0.099609375 0.8933716l1.2896576 1.5875854l0.9934845 0.29599l0.099624634 0.09954834l0.19923401 0l0.19923401 0.29867554l0 0.3982544l0 0.29599l-0.099609375 0.19909668l-0.49809265 0l-0.7942505 -0.7937927l-0.099624634 -0.19909668l-0.29615784 0l-0.79426575 0.09954834l-0.49809265 0.09954834l-0.49539185 0.39556885l-0.19923401 0.5973511l0.099609375 0.4951172l0.29885864 0.39822388l0.19923401 0.29599l0.39578247 0.3982544l0.5950165 0.5946655l0.5977173 0.29867554l0 0l-0.099624634 -0.09954834l0 -0.09957886l0 -0.09954834l0 -0.09954834l0.099624634 -0.09957886l0 -0.19909668l0.19654846 0.09954834l0 0.09954834l-0.19654846 0.49780273l-0.099624634 0.09957886l0.19654846 0.09686279l0.099624634 0l0 0.09954834l0.49809265 0l0.89385986 0.3982544l0.79426575 0l0.8938751 -0.29867554l0.49539185 -0.6942444l0.19923401 -0.9929199l-0.19923401 -0.5946655l0.9934845 -0.7937927l0.8938751 3.9689636l1.0904236 3.8693848l3.4758759 0.89334106l3.8716583 0.9929199l0 0l-0.99079895 -2.8764648l-1.5885162 -6.054352l-0.69732666 -3.075592l0 0l1.4915771 1.2889099l0.8938751 1.5875549l0.09692383 0.1991272l0.19923401 0.09957886l0.099624634 0.09954834l0.19923401 0.09954834l0.19923401 0l0.4954071 0.09689331l0.5950165 0.09954834l2.3827667 0l-1.7850647 -6.44989l-2.7812347 -13.793106l-1.787735 -14.586899l-0.79426575 -14.885574l0.099624634 -7.442795l-0.29885864 0.29599l-0.099609375 0.29867554l-0.19654846 0.3955536l-0.7942505 0.39823914l-0.49809265 0.0995636l-0.99349976 0.0995636l-0.29615784 -0.0995636l-0.39846802 0l-0.4954071 0.99290466l-2.283142 0.3955536l-0.39848328 1.2915955l-2.1835175 0.39553833l0.099609375 1.1920319l6.3540497 -0.19911194l0 0.29867554l-0.29885864 0.4951172l-0.39578247 0.6942291l-0.39846802 0.39823914l-0.39578247 0.29599l0 0.0995636l-0.099624634 -0.0995636l-3.2766418 0.29867554l-1.0931091 1.0924683l-2.778534 0l-1.2923584 1.687149l-3.9712677 -0.1991272l-0.19923401 0.0995636l-0.29615784 0.29599l-0.8938751 0.7937927l-0.39848328 0.49780273l-0.39578247 0.49510193l-0.19923401 0.1991272l-0.099609375 0.29867554l-0.099624634 0.29599l0.099624634 0.39823914l0 0.0995636l0 0.29599l-0.099624634 0.29867554l-0.099624634 0.3955536l-0.19923401 0.39823914l-0.09692383 0.19911194l-0.099609375 0.0995636l0.099609375 0l-0.597702 0.09687805l-0.39578247 0.39823914l-0.39848328 0.39553833l-0.29615784 0.39823914l-0.29885864 0.4951172l-0.19923401 0.59736633l-0.099624634 0.49510193l0.29885864 0.5946655l-0.099609375 -0.09954834l0 0.29867554l-0.19924927 0.39823914l-0.29615784 0.3955536l-0.49809265 0.89334106l-0.19654846 0.1991272l-0.099609375 0.19911194l-0.39846802 1.8835754l-1.3892822 0.49780273l0 5.952072l-2.5820007 1.687149l0 2.6800537l-0.7942505 0.89334106l-16.28357 0l0.19654846 -5.656082l1.2923431 -11.212631l2.3827667 -11.01619l3.2766418 -10.717514l4.2701263 -10.32196l5.2609253 -9.923721l6.157486 -9.425919l6.9517517 -8.930801l3.8716583 -4.1680756l10.325302 10.319275l1.0931091 -3.2747192l1.3892822 -3.175171l-8.141785 -8.137009l1.3919678 -1.3884583l1.4888763 -1.2915955l-1.1927185 -0.8933563l-1.8873596 -2.4809265l-0.39578247 -1.0897827l-0.099624634 -0.39823914l0 -0.3955536l-1.9869843 1.687149l-1.8846741 1.7840118l-23.534164 -23.61728l4.568985 -4.267624l9.630676 -7.9378967l10.128769 -7.243675l10.72377 -6.353012l5.6594086 -2.87648l0.099609375 -0.0995636l4.0708923 -1.886261l8.141785 -3.4738388l8.440643 -3.0755997l8.4379425 -2.58049l8.639862 -2.0826874l8.736816 -1.5875778l8.839111 -1.1920319l8.936035 -0.59467316l4.466675 -0.09955597l0 3.5733948l1.6881104 0.59467316l3.0801086 1.6871414l1.588501 1.0924683l0 -6.9476776zm-9.334503 -49.718166l-12.212677 0.7937889l-12.212677 1.3911514l-12.016113 2.0826912l-11.814209 2.7796097l-11.71727 3.5707092l-11.518051 4.1680717l-11.321487 4.7654266l-5.4601593 2.6773605l-0.5950165 0.29868317l-0.49809265 0.29868317l-7.643692 3.9689484l-14.695053 9.030365l-13.903503 10.023285l-12.907303 11.212624l-12.013443 12.105965l-11.022644 13.002014l-10.029144 13.992226l-8.836418 14.686462l-3.9712677 7.738785l-4.1705093 9.033066l-7.0513687 18.456284l-5.2609253 18.954086l-3.5754929 19.252777l-1.6881256 19.548767l0.19923401 19.548767l1.8873672 19.651001l3.7720337 19.34964l2.5820007 9.6250305l0.19923401 0.5973816l0.099624634 0l1.6881256 5.3573914l3.6724167 10.421539l4.2701263 10.319275l4.8651505 9.923706l5.2636185 9.724609l5.759018 9.329041l6.1548004 9.129944l6.7525024 8.632111l7.0486755 8.435699l7.546768 7.9378967l7.945236 7.6419373l8.338333 7.1467896l8.739487 6.74588l9.135269 6.352997l9.431442 5.8552246l9.730301 5.3573914l5.064377 2.4809265l-0.099624634 0.09957886l0.5977173 0.29867554l4.9647675 2.2817993l10.029144 4.168091l10.026459 3.6702576l10.228378 3.0782776l10.228378 2.478241l10.225708 2.0853882l10.328003 1.4880371l10.325287 0.9928894l10.328003 0.39556885l10.225708 0l10.228363 -0.4951172l10.126099 -0.9929199l10.128754 -1.4880066l9.929535 -1.9858398l9.929535 -2.3813477l9.730286 -2.9760437l9.533752 -3.2747192l9.431427 -3.8693848l9.234894 -4.267639l9.035645 -4.6631775l8.836426 -5.16098l8.540253 -5.556549l8.341034 -5.954773l8.042145 -6.352997l7.746002 -6.8454285l7.4471436 -7.1467896l7.0486755 -7.639221l6.8521423 -7.940613l6.3540344 -8.433014l6.0578613 -8.734375l5.559784 -9.129913l5.2636414 -9.425934l2.3827515 -4.961853l2.4823914 -5.16098l4.466675 -10.518402l3.7747192 -10.61795l3.177002 -10.620636l2.6789246 -10.717499l2.086609 -10.814392l1.3892822 -10.817078l0.99349976 -10.717499l0.29882812 -10.817078l-0.19921875 -10.717514l-0.6946411 -10.717499l-1.2923584 -10.61795l-1.7850342 -10.521088l-2.2858582 -10.319275l-2.8781433 -10.222397l-3.2766418 -10.120148l-3.8743591 -9.923721l-4.2674255 -9.627731l-4.768219 -9.525482l-5.2609253 -9.229492l-5.759033 -9.030365l-6.1574707 -8.632126l-6.652893 -8.435707l-7.0486755 -8.137024l-7.5467834 -7.7414703l-7.9425354 -7.343231l-8.341003 -7.047241l-8.739502 -6.5494385l-9.132599 -6.250763l-9.633362 -5.7556458l-9.929504 -5.260544l-10.325317 -4.862297l-5.263611 -2.182251l-4.7655334 -1.886261l-9.630676 -3.2747192l-9.733002 -2.87648l-9.829895 -2.3813705l-9.929535 -1.886261l-10.126068 -1.3884583l-10.029144 -0.9929123l-10.228394 -0.49779892zm-208.022 308.2273l-1.090416 0.5973816l2.283142 4.8623047l3.3762589 10.319275l3.2766342 16.077606l1.6881256 11.013489l0.8938751 5.459656l2.183525 10.916626l3.0774002 10.518402l3.2766418 7.5423584l2.6816177 4.8623047l1.4888916 2.2817993l1.8873596 2.5804749l3.9712753 4.9618835l6.652893 7.0445557l4.668602 4.2676086l0 0l-3.7747269 -2.082672l-7.1482925 -5.061432l-3.4758759 -2.879181l-2.8781586 -2.2817993l-5.8586426 -4.1680603l-9.234894 -5.556549l-19.363655 -9.724579l-12.9073105 -6.3530273l-6.2544174 -3.3742676l-9.035656 -5.556549l-5.5624733 -4.2676086l-5.360546 -4.6631775l-4.8651466 -5.260559l-4.369747 -5.8525085l-3.8716545 -6.552124l-1.6881275 -3.670288l-1.192728 0.39556885l1.093111 5.459656l3.475872 10.717499l4.8651466 10.319275l6.1547985 9.724609l7.1509857 9.229492l8.042164 8.535248l8.736801 7.8383484l9.234894 7.047241l4.665909 3.1751404l4.568985 2.7796326l9.630669 4.4640503l10.029152 3.2747192l10.228378 2.4809265l15.785477 2.879181l15.688553 2.7769165l10.228378 2.4809265l4.9647675 1.5875854l0.5950165 -1.0897827l-4.466675 -3.772522l-7.250595 -8.137024l-5.9555664 -8.930817l-4.768219 -9.425903l-5.7590256 -14.788727l-6.749817 -20.143433l-3.8743439 -9.923706l-2.7785492 -6.0543213l-6.4536514 -11.511322l-7.646385 -11.212616l-8.440636 -10.817078l-4.369751 -5.2605286l-0.099617004 0l0 -0.09957886zm428.55286 -0.29595947l-0.1965332 0.39553833l0 0.09954834l-4.469391 5.260559l-8.341003 10.817047l-7.5467834 11.013519l-6.553253 11.61087l-2.6816406 5.9547424l-3.871643 9.923737l-6.8521423 20.242981l-5.8559265 14.788727l-4.768219 9.425903l-5.8586426 8.831268l-7.347534 8.236572l-4.367035 3.772522l0.5950012 1.0897827l4.964752 -1.5875854l10.228394 -2.4809265l15.685852 -2.7769165l15.688568 -2.879181l10.328003 -2.4809265l10.029114 -3.2747192l9.531067 -4.4640503l4.5689697 -2.7796326l4.765564 -3.1751404l9.135254 -7.047241l8.736816 -7.8383484l8.042175 -8.535248l7.15094 -9.229492l6.154846 -9.724609l4.9647217 -10.319275l3.3762817 -10.717499l1.0930786 -5.459656l-1.192688 -0.39556885l-1.6881714 3.670288l-3.871643 6.552124l-4.369751 5.8525085l-4.8651123 5.260559l-5.2609253 4.6631775l-5.6621094 4.2676086l-8.936035 5.556549l-6.2543945 3.3742676l-12.907349 6.3530273l-19.463257 9.724579l-9.234894 5.556549l-5.8586426 4.1680603l-2.778534 2.2817993l-3.5755005 2.879181l-7.148285 5.061432l-3.6751099 2.182251l0 0l4.5689697 -4.3671875l8.736816 -9.525482l3.7747192 -5.061432l1.588501 -2.2817993l2.6789246 -4.8623047l3.2766418 -7.5423584l3.0801086 -10.518402l2.1835022 -10.817047l0.8938904 -5.5592346l1.588501 -10.91394l3.3762512 -16.077606l3.2766418 -10.219727l2.283142 -4.86499l0.89385986 -1.0897522zm-386.35236 63.312134l0.099624634 0.09957886l-0.9934921 0.7937622l2.8808517 4.068512l5.1640015 8.831268l6.949051 13.795807l4.9647675 9.127228l2.5820007 4.4667664l5.958252 8.336121l5.36055 5.556549l4.0708923 3.2747192l4.4693604 2.9787292l5.064392 2.5777893l2.6789246 1.0924683l6.2571106 1.9858093l5.958252 1.8835754l0 0l-2.9804688 -0.19641113l-6.055191 -1.0924683l-3.0800934 -0.59469604l-7.148285 -1.3911438l-14.794678 -1.6871338l-22.737213 -1.3884583l-14.894295 -1.4880066l-7.3475266 -0.9929199l-10.626862 -2.2818298l-6.949051 -2.1822205l-6.553276 -2.7796326l-6.3540344 -3.3742676l-5.9582596 -4.168091l-5.659401 -5.0614014l-2.6816177 -2.8764954l-0.9934921 0.6942444l2.0866013 3.968933l5.0616913 7.44281l5.9582596 6.9476624l6.5532684 6.44989l7.1509857 5.7556458l7.643692 5.061432l7.845619 4.364502l8.04216 3.4738464l4.0708923 1.3884583l3.0774002 0.9928894l6.257118 1.5875854l9.331818 1.3911438l12.611145 0.39556885l12.51152 -0.8933716l12.411911 -1.9831238l12.312302 -2.6800537l18.170929 -4.6631775l11.71727 -2.9787292l3.3762512 -0.69421387l7.2479095 -0.6942444l3.3762665 -0.89334106l2.083908 -0.7937927l-2.1835327 -0.3982544l-6.35672 -1.3884583l-12.50885 -3.473816l-8.936035 -3.5707092l-5.759018 -2.879181l-5.46286 -3.3742676l-5.2609253 -3.8694153l-2.482376 -2.182251l-14.100037 -13.298004l-20.553696 -19.352325l-10.723785 -8.930817l-7.4471436 -5.5565186l-3.7747345 -2.6800537zm343.95532 0.09957886l-3.8743286 2.5804749l-7.347534 5.5565186l-10.723785 8.930817l-20.55368 19.352325l-14.000427 13.298004l-2.4823914 2.182251l-5.2609253 3.8694153l-5.5624695 3.3742676l-5.6593933 2.879181l-8.936035 3.5707092l-12.511536 3.473816l-6.453644 1.2915955l-2.0839233 0.4951172l1.9842834 0.6942444l3.3762512 0.9928894l7.347534 0.6942444l3.3762512 0.5946655l11.617676 3.0782776l18.170929 4.6631775l12.312286 2.6800537l12.411896 1.9831238l12.611145 0.8933716l12.511536 -0.39556885l9.4314575 -1.4906921l6.1574707 -1.4880371l3.1770325 -0.9928894l3.971283 -1.3884583l8.042145 -3.4738464l7.8456116 -4.364502l7.6437073 -5.061432l7.151001 -5.7556458l6.652893 -6.44989l5.8586426 -6.9476624l5.0616455 -7.5423584l2.1862183 -3.8693848l-1.0930786 -0.6942444l-2.5820312 2.8764954l-5.659363 5.0614014l-6.0579224 4.168091l-6.2543945 3.3742676l-6.652893 2.7796326l-6.852112 2.082672l-10.624176 2.3813782l-7.347534 0.9929199l-14.9938965 1.4880066l-22.637604 1.3884583l-14.894287 1.6871338l-7.1483154 1.2915955l-3.0800781 0.6942444l-5.9555664 0.9928894l-3.0800781 0.1991272l5.958252 -1.7867126l6.2571106 -1.9858093l2.778534 -1.0924683l4.964752 -2.5777893l4.469391 -2.9787292l4.0708923 -3.2747192l5.3605347 -5.556549l5.958252 -8.336121l2.68161 -4.4667664l4.865143 -9.127228l7.0486755 -13.895386l5.064392 -8.731689l2.8808594 -4.068512l-0.8938904 -0.7937622zm-203.05722 69.5629l-5.4601746 0.09957886l-10.624161 1.1920166l-10.328003 2.182251l-10.225693 3.0782776l-14.894287 5.556549l-19.363663 8.336121l-9.531052 4.068512l-4.369751 1.6871643l-9.135269 2.480896l-9.531067 1.3884888l-9.730286 0.29864502l-9.633362 -0.69421387l-9.531052 -1.8862305l-9.03566 -2.9787598l-8.440643 -4.068512l-3.8716507 -2.5804749l-0.7942581 0.89334106l1.9842911 2.3813782l4.0708923 4.3671875l6.652893 5.7556763l9.633369 6.253418l10.126068 5.058716l5.263626 2.0853882l4.964752 1.7867432l10.128769 2.2817993l10.225693 0.69421387l10.328003 -0.5946655l10.225693 -1.8862915l10.029144 -2.8764648l9.533752 -3.8720703l8.936035 -4.663208l4.2701263 -2.5804443l5.855942 -3.9689941l11.421112 -8.236542l8.637192 -5.556549l5.8586426 -3.0782776l6.2543945 -2.182251l6.45636 -1.2889099l3.473175 -0.09954834l3.971283 0.1991272l3.8743286 0.69421387l-4.865143 2.0827026l-9.434113 4.665863l-9.135284 5.257843l-8.936035 5.6560974l-12.71077 9.129944l-15.489304 12.999329l-7.0486755 6.5494385l-0.39846802 0.49780273l0.39846802 0.3955078l2.8781586 2.9787598l6.0578766 5.656067l3.2766418 2.480957l0.39846802 0.3955078l0.39578247 -0.3955078l7.9425507 -8.137024l16.582413 -16.177185l12.910004 -11.113037l8.6371765 -6.649048l8.836426 -5.755615l8.739502 -4.8623047l4.369751 -1.886261l4.466675 1.886261l8.736786 4.8623047l8.839111 5.755615l8.6371765 6.649048l12.910004 11.113037l16.579742 16.177185l7.945221 8.137024l0.39578247 0.3955078l0.39846802 -0.3955078l3.2766418 -2.480957l6.057892 -5.656067l2.8781433 -2.9787598l0.39849854 -0.3955078l-0.39849854 -0.49780273l-7.0486755 -6.5494385l-15.588928 -12.999329l-12.710754 -9.129944l-8.836426 -5.7556458l-9.135254 -5.1582947l-9.434143 -4.665863l-4.865143 -2.0827026l3.871643 -0.69421387l3.9739685 -0.1991272l3.3735657 0.09954834l6.555969 1.2889099l6.1548157 2.182251l5.958252 3.0782776l8.6371765 5.556549l11.4184265 8.236542l5.858612 3.9689941l4.2701416 2.5804443l8.936035 4.663208l9.533752 3.8720703l10.029144 2.8764648l10.126068 1.8862915l10.427612 0.5946655l10.225708 -0.69421387l10.128754 -2.2817993l4.9647827 -1.7867432l5.1640015 -2.0853882l10.2256775 -5.058716l9.633362 -6.253418l6.6502075 -5.7556763l4.073578 -4.3671875l1.9842834 -2.3813782l-0.89385986 -0.89334106l-3.7720337 2.4809265l-8.440643 4.1680603l-9.035645 2.9787598l-9.531067 1.7866821l-9.633362 0.7937622l-9.730286 -0.29864502l-9.630676 -1.3884888l-9.135284 -2.480896l-4.270111 -1.6871643l-9.531067 -4.068512l-19.363647 -8.336121l-14.894318 -5.556549l-10.2256775 -3.0782776l-10.427612 -2.182251l-10.624176 -1.1920166l-5.3605347 -0.09957886l-3.9739685 0l-7.942566 0.69692993l-7.743286 1.189331l-7.746002 1.7867126l-3.7720337 1.0924683l-3.7747498 -1.0924683l-7.6463623 -1.7867126l-7.842926 -1.189331l-7.845642 -0.69692993z" fill-rule="evenodd"/><path fill="#000000" fill-opacity="0.0" d="m634.16534 22.64567l1748.9451 0l0 554.7086l-1748.9451 0z" fill-rule="evenodd"/><path fill="#000000" d="m803.9559 147.93752l79.125 223.42186l78.71875 -223.42186l83.359436 0l0 308.0625l-63.68756 0l0 -84.21875l6.34375 -145.35936l-83.15625 229.57811l-43.578125 0l-82.9375 -229.35936l6.34375 145.14061l0 84.21875l-63.484375 0l0 -308.0625l82.953125 0zm410.4759 231.68748l69.8125 -231.68748l70.671875 0l-107.265625 308.0625l-66.234375 0l-106.84375 -308.0625l70.453125 0l69.40625 231.68748z" fill-rule="nonzero"/><path fill="#000000" d="m1429.8236 147.93752l113.625 271.875l114.046875 -271.875l34.6875 0l0 308.0625l-26.015625 0l0 -134.14062l2.109375 -137.53123l-114.671875 271.67188l-20.109375 0l-114.25 -270.625l2.109375 135.64061l0 134.98438l-26.015625 0l0 -308.0625l34.484375 0zm552.6648 0l0 210.31248q-0.21875 31.09375 -13.765625 54.15625q-13.53125 23.0625 -38.1875 35.453125q-24.640625 12.375 -56.59375 12.375q-48.671875 0 -77.984375 -26.546875q-29.296875 -26.5625 -30.34375 -73.53125l0 -212.21873l25.8125 0l0 208.40623q0 38.9375 22.21875 60.421875q22.21875 21.46875 60.296875 21.46875q38.078125 0 60.1875 -21.578125q22.125 -21.59375 22.125 -60.109375l0 -208.60936l26.234375 0zm301.93518 308.0625l-26.03125 0l-177.09375 -263.64062l0 263.64062l-26.234375 0l0 -308.0625l26.234375 0l177.3125 263.84375l0 -263.84375l25.8125 0l0 308.0625z" fill-rule="nonzero"/></g></svg>